<svg width="110" height="97" viewBox="0 0 110 97" fill="none" xmlns="http://www.w3.org/2000/svg">
<path d="M16.1447 95.3552C11.5017 90.7123 7.81876 85.2003 5.30602 79.134C2.79329 73.0678 1.5 66.566 1.5 59.9999C1.5 53.4338 2.79329 46.932 5.30603 40.8657C7.81876 34.7994 11.5017 29.2875 16.1447 24.6445" stroke="url(#paint0_linear_44_115)" stroke-width="2" stroke-linecap="round"/>
<path d="M93.4999 24.6448C98.1428 29.2877 101.826 34.7997 104.339 40.866C106.851 46.9322 108.145 53.434 108.145 60.0001C108.145 66.5662 106.851 73.068 104.339 79.1343C101.826 85.2006 98.1428 90.7125 93.4999 95.3555" stroke="url(#paint1_linear_44_115)" stroke-width="2" stroke-linecap="round"/>
<path d="M19.5003 19.6447C24.1432 15.0017 29.6551 11.3188 35.7214 8.80602C41.7877 6.29329 48.2895 5 54.8556 5C61.4217 5 67.9235 6.29329 73.9898 8.80603C80.0561 11.3188 85.568 15.0017 90.2109 19.6447" stroke="url(#paint2_linear_44_115)" stroke-width="2" stroke-linecap="round"/>
<g filter="url(#filter0_d_44_115)">
<path d="M46.156 54.288C44.924 54.288 43.86 54.072 42.964 53.64C42.084 53.208 41.388 52.616 40.876 51.864C40.38 51.096 40.092 50.232 40.012 49.272H43.012C43.156 49.96 43.508 50.536 44.068 51C44.628 51.448 45.324 51.672 46.156 51.672C47.052 51.672 47.78 51.344 48.34 50.688C48.916 50.032 49.204 49.216 49.204 48.24C49.204 47.232 48.916 46.432 48.34 45.84C47.78 45.248 47.068 44.952 46.204 44.952C45.484 44.952 44.86 45.128 44.332 45.48C43.804 45.832 43.428 46.272 43.204 46.8H40.252L41.692 37.2H51.004V39.888H43.996L43.228 43.776C43.58 43.392 44.06 43.08 44.668 42.84C45.276 42.584 45.956 42.456 46.708 42.456C47.908 42.456 48.908 42.728 49.708 43.272C50.508 43.8 51.116 44.504 51.532 45.384C51.948 46.248 52.156 47.192 52.156 48.216C52.156 49.384 51.9 50.424 51.388 51.336C50.892 52.248 50.188 52.968 49.276 53.496C48.38 54.024 47.34 54.288 46.156 54.288ZM61.9028 54.288C60.3508 54.288 59.0228 53.928 57.9188 53.208C56.8148 52.472 55.9588 51.456 55.3508 50.16C54.7588 48.848 54.4628 47.328 54.4628 45.6C54.4628 43.888 54.7588 42.376 55.3508 41.064C55.9588 39.752 56.8148 38.736 57.9188 38.016C59.0228 37.28 60.3508 36.912 61.9028 36.912C63.4548 36.912 64.7828 37.28 65.8868 38.016C66.9908 38.736 67.8388 39.752 68.4308 41.064C69.0388 42.376 69.3428 43.888 69.3428 45.6C69.3428 47.328 69.0388 48.848 68.4308 50.16C67.8388 51.456 66.9908 52.472 65.8868 53.208C64.7828 53.928 63.4548 54.288 61.9028 54.288ZM61.9028 51.528C63.1668 51.528 64.1988 51 64.9988 49.944C65.7988 48.888 66.1988 47.44 66.1988 45.6C66.1988 43.76 65.7988 42.312 64.9988 41.256C64.1988 40.2 63.1668 39.672 61.9028 39.672C60.6228 39.672 59.5828 40.2 58.7828 41.256C57.9988 42.312 57.6068 43.76 57.6068 45.6C57.6068 47.44 57.9988 48.888 58.7828 49.944C59.5828 51 60.6228 51.528 61.9028 51.528Z" fill="#84E4BE"/>
</g>
<g filter="url(#filter1_d_44_115)">
<path d="M34.352 73V64.6H35.624L39.836 70.924V64.6H41.108V73H39.836L35.624 66.676V73H34.352ZM45.5489 73.144C44.9649 73.144 44.4449 73.016 43.9889 72.76C43.5409 72.496 43.1889 72.132 42.9329 71.668C42.6769 71.204 42.5489 70.664 42.5489 70.048C42.5489 69.424 42.6729 68.876 42.9209 68.404C43.1769 67.932 43.5289 67.564 43.9769 67.3C44.4329 67.036 44.9609 66.904 45.5609 66.904C46.1449 66.904 46.6529 67.036 47.0849 67.3C47.5169 67.556 47.8529 67.9 48.0929 68.332C48.3329 68.764 48.4529 69.24 48.4529 69.76C48.4529 69.84 48.4489 69.928 48.4409 70.024C48.4409 70.112 48.4369 70.212 48.4289 70.324H43.7969C43.8369 70.9 44.0249 71.34 44.3609 71.644C44.7049 71.94 45.1009 72.088 45.5489 72.088C45.9089 72.088 46.2089 72.008 46.4489 71.848C46.6969 71.68 46.8809 71.456 47.0009 71.176H48.2729C48.1129 71.736 47.7929 72.204 47.3129 72.58C46.8409 72.956 46.2529 73.144 45.5489 73.144ZM45.5489 67.948C45.1249 67.948 44.7489 68.076 44.4209 68.332C44.0929 68.58 43.8929 68.956 43.8209 69.46H47.1809C47.1569 68.996 46.9929 68.628 46.6889 68.356C46.3849 68.084 46.0049 67.948 45.5489 67.948ZM51.9688 73.144C51.2488 73.144 50.6808 72.92 50.2648 72.472C49.8568 72.024 49.6528 71.356 49.6528 70.468V67.048H50.9248V70.336C50.9248 71.488 51.3968 72.064 52.3408 72.064C52.8128 72.064 53.2008 71.896 53.5048 71.56C53.8088 71.224 53.9608 70.744 53.9608 70.12V67.048H55.2328V73H54.1048L54.0088 71.956C53.8248 72.324 53.5528 72.616 53.1928 72.832C52.8408 73.04 52.4328 73.144 51.9688 73.144ZM59.3469 73C58.7629 73 58.2989 72.86 57.9549 72.58C57.6109 72.292 57.4389 71.784 57.4389 71.056V68.116H56.4189V67.048H57.4389L57.5949 65.536H58.7109V67.048H60.3909V68.116H58.7109V71.056C58.7109 71.384 58.7789 71.612 58.9149 71.74C59.0589 71.86 59.3029 71.92 59.6469 71.92H60.3309V73H59.3469ZM61.7024 73V67.048H62.8424L62.9504 68.176C63.1584 67.784 63.4464 67.476 63.8144 67.252C64.1904 67.02 64.6424 66.904 65.1704 66.904V68.236H64.8224C64.4704 68.236 64.1544 68.296 63.8744 68.416C63.6024 68.528 63.3824 68.724 63.2144 69.004C63.0544 69.276 62.9744 69.656 62.9744 70.144V73H61.7024ZM68.277 73.144C67.773 73.144 67.357 73.06 67.029 72.892C66.701 72.724 66.457 72.504 66.297 72.232C66.137 71.952 66.057 71.648 66.057 71.32C66.057 70.744 66.281 70.288 66.729 69.952C67.177 69.616 67.817 69.448 68.649 69.448H70.209V69.34C70.209 68.876 70.081 68.528 69.825 68.296C69.577 68.064 69.253 67.948 68.853 67.948C68.501 67.948 68.193 68.036 67.929 68.212C67.673 68.38 67.517 68.632 67.461 68.968H66.189C66.229 68.536 66.373 68.168 66.621 67.864C66.877 67.552 67.197 67.316 67.581 67.156C67.973 66.988 68.401 66.904 68.865 66.904C69.697 66.904 70.341 67.124 70.797 67.564C71.253 67.996 71.481 68.588 71.481 69.34V73H70.377L70.269 71.98C70.101 72.308 69.857 72.584 69.537 72.808C69.217 73.032 68.797 73.144 68.277 73.144ZM68.529 72.112C68.873 72.112 69.161 72.032 69.393 71.872C69.633 71.704 69.817 71.484 69.945 71.212C70.081 70.94 70.165 70.64 70.197 70.312H68.781C68.277 70.312 67.917 70.4 67.701 70.576C67.493 70.752 67.389 70.972 67.389 71.236C67.389 71.508 67.489 71.724 67.689 71.884C67.897 72.036 68.177 72.112 68.529 72.112ZM72.9642 73V64.36H74.2362V73H72.9642Z" fill="white" fill-opacity="0.63" shape-rendering="crispEdges"/>
</g>
<circle cx="54.5" cy="5" r="5" fill="white"/>
<defs>
<filter id="filter0_d_44_115" x="36.0117" y="36.9121" width="37.3311" height="25.376" filterUnits="userSpaceOnUse" color-interpolation-filters="sRGB">
<feFlood flood-opacity="0" result="BackgroundImageFix"/>
<feColorMatrix in="SourceAlpha" type="matrix" values="0 0 0 0 0 0 0 0 0 0 0 0 0 0 0 0 0 0 127 0" result="hardAlpha"/>
<feOffset dy="4"/>
<feGaussianBlur stdDeviation="2"/>
<feComposite in2="hardAlpha" operator="out"/>
<feColorMatrix type="matrix" values="0 0 0 0 0 0 0 0 0 0 0 0 0 0 0 0 0 0 0.25 0"/>
<feBlend mode="normal" in2="BackgroundImageFix" result="effect1_dropShadow_44_115"/>
<feBlend mode="normal" in="SourceGraphic" in2="effect1_dropShadow_44_115" result="shape"/>
</filter>
<filter id="filter1_d_44_115" x="30.3516" y="64.3604" width="47.8848" height="16.7832" filterUnits="userSpaceOnUse" color-interpolation-filters="sRGB">
<feFlood flood-opacity="0" result="BackgroundImageFix"/>
<feColorMatrix in="SourceAlpha" type="matrix" values="0 0 0 0 0 0 0 0 0 0 0 0 0 0 0 0 0 0 127 0" result="hardAlpha"/>
<feOffset dy="4"/>
<feGaussianBlur stdDeviation="2"/>
<feComposite in2="hardAlpha" operator="out"/>
<feColorMatrix type="matrix" values="0 0 0 0 0 0 0 0 0 0 0 0 0 0 0 0 0 0 0.25 0"/>
<feBlend mode="normal" in2="BackgroundImageFix" result="effect1_dropShadow_44_115"/>
<feBlend mode="normal" in="SourceGraphic" in2="effect1_dropShadow_44_115" result="shape"/>
</filter>
<linearGradient id="paint0_linear_44_115" x1="16.5" y1="95" x2="16.5" y2="25" gradientUnits="userSpaceOnUse">
<stop stop-color="#FF5C5C"/>
<stop offset="1" stop-color="#FFB905"/>
</linearGradient>
<linearGradient id="paint1_linear_44_115" x1="93.5" y1="25" x2="93.5" y2="95" gradientUnits="userSpaceOnUse">
<stop stop-color="#FAFF01"/>
<stop offset="1" stop-color="#84E4BF"/>
</linearGradient>
<linearGradient id="paint2_linear_44_115" x1="19.5" y1="20" x2="90.5" y2="20" gradientUnits="userSpaceOnUse">
<stop stop-color="#FFB905"/>
<stop offset="1" stop-color="#FFF509"/>
</linearGradient>
</defs>
</svg>
