<svg xmlns="http://www.w3.org/2000/svg" width="16" height="19" viewBox="0 0 16 19" fill="none">
  <g clip-path="url(#clip0_11_21478)">
    <path d="M8.00331 5.45732C5.73189 5.45732 3.89975 7.26084 3.89975 9.49677C3.89975 11.7327 5.73189 13.5362 8.00331 13.5362C10.2747 13.5362 12.1069 11.7327 12.1069 9.49677C12.1069 7.26084 10.2747 5.45732 8.00331 5.45732ZM8.00331 12.1229C6.53546 12.1229 5.33546 10.9452 5.33546 9.49677C5.33546 8.04834 6.53189 6.8706 8.00331 6.8706C9.47474 6.8706 10.6712 8.04834 10.6712 9.49677C10.6712 10.9452 9.47117 12.1229 8.00331 12.1229ZM13.2319 5.29209C13.2319 5.81592 12.8033 6.23428 12.2747 6.23428C11.7426 6.23428 11.3176 5.8124 11.3176 5.29209C11.3176 4.77178 11.7462 4.3499 12.2747 4.3499C12.8033 4.3499 13.2319 4.77178 13.2319 5.29209ZM15.9497 6.24834C15.889 4.98623 15.5962 3.86826 14.6569 2.94717C13.7212 2.02607 12.5855 1.73779 11.3033 1.67451C9.98188 1.60068 6.02117 1.60068 4.69975 1.67451C3.42118 1.73428 2.28546 2.02256 1.34618 2.94365C0.406892 3.86474 0.117606 4.98271 0.0533203 6.24482C-0.0216797 7.5456 -0.0216797 11.4444 0.0533203 12.7452C0.114035 14.0073 0.406892 15.1253 1.34618 16.0464C2.28546 16.9675 3.4176 17.2558 4.69975 17.319C6.02117 17.3929 9.98188 17.3929 11.3033 17.319C12.5855 17.2593 13.7212 16.971 14.6569 16.0464C15.5926 15.1253 15.8855 14.0073 15.9497 12.7452C16.0247 11.4444 16.0247 7.54912 15.9497 6.24834ZM14.2426 14.1409C13.964 14.83 13.4247 15.3608 12.7212 15.6386C11.6676 16.0499 9.1676 15.955 8.00331 15.955C6.83903 15.955 4.33546 16.0464 3.28546 15.6386C2.58546 15.3643 2.04618 14.8335 1.76403 14.1409C1.34618 13.1038 1.44261 10.6429 1.44261 9.49677C1.44261 8.35068 1.34975 5.88623 1.76403 4.85263C2.0426 4.16357 2.58189 3.63271 3.28546 3.35498C4.33903 2.94365 6.83903 3.03857 8.00331 3.03857C9.1676 3.03857 11.6712 2.94717 12.7212 3.35498C13.4212 3.6292 13.9605 4.16006 14.2426 4.85263C14.6605 5.88974 14.564 8.35068 14.564 9.49677C14.564 10.6429 14.6605 13.1073 14.2426 14.1409Z" fill="white"/>
  </g>
  <defs>
    <clipPath id="clip0_11_21478">
      <rect width="16" height="18" fill="white" transform="translate(0 0.5)"/>
    </clipPath>
  </defs>
</svg>