<svg xmlns="http://www.w3.org/2000/svg" width="16" height="16" viewBox="0 0 16 16" fill="none">
  <g clip-path="url(#clip0_11_21482)">
    <path d="M3.63269 15.5V5.37953H0.202386V15.5H3.63269ZM1.91798 3.99692C3.11419 3.99692 3.85877 3.21978 3.85877 2.24862C3.83648 1.25556 3.11423 0.5 1.94068 0.5C0.767312 0.5 0 1.25558 0 2.24862C0 3.21983 0.744398 3.99692 1.89559 3.99692H1.91787H1.91798ZM5.53135 15.5H8.96165V9.84824C8.96165 9.54576 8.98394 9.2436 9.07452 9.02738C9.32251 8.42304 9.88693 7.79712 10.8345 7.79712C12.0758 7.79712 12.5724 8.7252 12.5724 10.0857V15.4999H16.0025V9.69695C16.0025 6.58834 14.3101 5.14193 12.0532 5.14193C10.2027 5.14193 9.39021 6.15626 8.93883 6.84712H8.96173V5.37932H5.53143C5.57644 6.32897 5.53143 15.4998 5.53143 15.4998L5.53135 15.5Z" fill="white"/>
  </g>
  <defs>
    <clipPath id="clip0_11_21482">
      <rect width="16" height="15" fill="white" transform="translate(0 0.5)"/>
    </clipPath>
  </defs>
</svg>