<svg xmlns="http://www.w3.org/2000/svg" width="18" height="15" viewBox="0 0 18 15" fill="none">
  <g clip-path="url(#clip0_11_21486)">
    <path d="M17.9998 2.20441C17.3257 2.48888 16.6108 2.67561 15.8787 2.75838C16.6412 2.32297 17.2267 1.63349 17.5024 0.811979C16.7776 1.22179 15.9845 1.51052 15.1574 1.66571C14.4838 0.981989 13.5241 0.554688 12.4619 0.554688C10.4224 0.554688 8.76885 2.12992 8.76885 4.07277C8.76885 4.34855 8.80155 4.61703 8.86447 4.87459C5.79533 4.72782 3.07424 3.32722 1.25279 1.19869C0.934982 1.71829 0.752873 2.32271 0.752873 2.96738C0.752873 4.18799 1.40488 5.26478 2.39572 5.89572C1.80928 5.87822 1.23574 5.72732 0.72299 5.45562C0.722779 5.47036 0.722779 5.4851 0.722779 5.4999C0.722779 7.20448 1.99572 8.62645 3.68504 8.94966C3.14124 9.09056 2.57082 9.11118 2.01737 9.00995C2.48727 10.4077 3.85112 11.4248 5.46705 11.4532C4.20318 12.3968 2.61081 12.9593 0.880701 12.9593C0.582576 12.9593 0.28867 12.9426 -0.000244141 12.9101C1.63403 13.9083 3.57515 14.4908 5.66062 14.4908C12.4533 14.4908 16.1677 9.12985 16.1677 4.48078C16.1677 4.32819 16.1642 4.17647 16.157 4.02561C16.88 3.5277 17.504 2.91098 17.9998 2.20441Z" fill="white"/>
  </g>
  <defs>
    <clipPath id="clip0_11_21486">
      <rect width="18" height="14" fill="white" transform="translate(-0.000244141 0.5)"/>
    </clipPath>
  </defs>
</svg>