<svg xmlns="http://www.w3.org/2000/svg" width="60" height="60" viewBox="0 0 60 60" fill="none">
  <path d="M8.58008 12.8367C7.77148 12.8367 7.11523 12.1805 7.11523 11.3719V4.6875C7.11523 3.87891 7.77148 3.22266 8.58008 3.22266C9.38867 3.22266 10.0449 3.87891 10.0449 4.6875V11.3719C10.0449 12.1805 9.38867 12.8367 8.58008 12.8367Z" fill="#84E4BE"/>
  <path d="M8.58008 51.4109C7.77148 51.4109 7.11523 50.7547 7.11523 49.9461V43.2617C7.11523 42.4531 7.77148 41.7969 8.58008 41.7969C9.38867 41.7969 10.0449 42.4531 10.0449 43.2617V49.9461C10.0449 50.7547 9.38867 51.4109 8.58008 51.4109Z" fill="#84E4BE"/>
  <path d="M22.8594 44.2145C22.0508 44.2145 21.3945 43.5582 21.3945 42.7496V38.2461C21.3945 37.4375 22.0508 36.7812 22.8594 36.7812C23.668 36.7812 24.3242 37.4375 24.3242 38.2461V42.7496C24.3242 43.5582 23.668 44.2145 22.8594 44.2145Z" fill="#84E4BE"/>
  <path d="M22.8594 21.5289C22.0508 21.5289 21.3945 20.8727 21.3945 20.0641V15.5605C21.3945 14.752 22.0508 14.0957 22.8594 14.0957C23.668 14.0957 24.3242 14.752 24.3242 15.5605V20.0641C24.3242 20.8727 23.668 21.5289 22.8594 21.5289Z" fill="#84E4BE"/>
  <path d="M37.1399 56.7777C36.3313 56.7777 35.675 56.1215 35.675 55.3129V51.6016C35.675 50.793 36.3313 50.1367 37.1399 50.1367C37.9485 50.1367 38.6047 50.793 38.6047 51.6016V55.3129C38.6047 56.1215 37.9485 56.7777 37.1399 56.7777Z" fill="#84E4BE"/>
  <path d="M37.1399 26.3559C36.3313 26.3559 35.675 25.6996 35.675 24.891V21.1797C35.675 20.3711 36.3313 19.7148 37.1399 19.7148C37.9485 19.7148 38.6047 20.3711 38.6047 21.1797V24.891C38.6047 25.6996 37.9485 26.3559 37.1399 26.3559Z" fill="#84E4BE"/>
  <path d="M51.4199 12.1488C50.6113 12.1488 49.9551 11.4926 49.9551 10.684V4.6875C49.9551 3.87891 50.6113 3.22266 51.4199 3.22266C52.2285 3.22266 52.8848 3.87891 52.8848 4.6875V10.684C52.8848 11.4926 52.2285 12.1488 51.4199 12.1488Z" fill="#84E4BE"/>
  <path d="M51.4199 52.2992C50.6113 52.2992 49.9551 51.643 49.9551 50.8344V44.8379C49.9551 44.0293 50.6113 43.373 51.4199 43.373C52.2285 43.373 52.8848 44.0293 52.8848 44.8379V50.8344C52.8848 51.643 52.2285 52.2992 51.4199 52.2992Z" fill="#84E4BE"/>
  <path d="M10.1297 9.90625H7.03125C4.92782 9.90625 3.22266 11.6114 3.22266 13.7148V40.9164C3.22266 43.0198 4.92782 44.725 7.03125 44.725H10.1297C12.2331 44.725 13.9383 43.0198 13.9383 40.9164V13.7148C13.9383 11.6114 12.2331 9.90625 10.1297 9.90625Z" fill="#84E4BE"/>
  <path d="M24.409 18.5996H21.3105C19.2071 18.5996 17.502 20.3048 17.502 22.4082V35.9023C17.502 38.0058 19.2071 39.7109 21.3105 39.7109H24.409C26.5124 39.7109 28.2176 38.0058 28.2176 35.9023V22.4082C28.2176 20.3048 26.5124 18.5996 24.409 18.5996Z" fill="#84E4BE"/>
  <path d="M38.6883 23.4258H35.5898C33.4864 23.4258 31.7812 25.1309 31.7812 27.2344V49.2563C31.7812 51.3597 33.4864 53.0648 35.5898 53.0648H38.6883C40.7917 53.0648 42.4969 51.3597 42.4969 49.2563V27.2344C42.4969 25.1309 40.7917 23.4258 38.6883 23.4258Z" fill="#84E4BE"/>
  <path d="M52.9686 9.21875H49.8701C47.7667 9.21875 46.0615 10.9239 46.0615 13.0273V42.4918C46.0615 44.5952 47.7667 46.3004 49.8701 46.3004H52.9686C55.072 46.3004 56.7771 44.5952 56.7771 42.4918V13.0273C56.7771 10.9239 55.072 9.21875 52.9686 9.21875Z" fill="#84E4BE"/>
</svg>