<svg xmlns="http://www.w3.org/2000/svg" width="60" height="61" viewBox="0 0 60 61" fill="none">
  <g clip-path="url(#clip0_7_5610)">
    <path d="M59.8107 27.1694C59.716 26.3261 58.7323 25.6917 57.8817 25.6917C55.1328 25.6917 52.6932 24.0782 51.6701 21.581C50.6257 19.0239 51.2995 16.0422 53.3476 14.1633C53.9927 13.5735 54.0713 12.5859 53.5305 11.9004C52.1231 10.1136 50.5242 8.49942 48.7779 7.10057C48.0947 6.55255 47.0908 6.62884 46.4979 7.28506C44.7098 9.2654 41.4977 10.0013 39.0156 8.9657C36.4335 7.87926 34.8037 5.2619 34.9638 2.45253C35.0165 1.56953 34.3709 0.802247 33.491 0.699753C31.2499 0.440274 28.989 0.43275 26.7414 0.682108C25.8727 0.778116 25.2276 1.52723 25.2565 2.39908C25.3538 5.18095 23.7055 7.75212 21.1484 8.79963C18.6961 9.80148 15.5063 9.07105 13.7219 7.10809C13.1321 6.46147 12.1458 6.38207 11.4579 6.91842C9.66024 8.3292 8.02526 9.94445 6.60488 11.7167C6.05141 12.4056 6.13314 13.4041 6.78366 13.996C8.8722 15.8873 9.54555 18.8946 8.46119 21.4816C7.42587 23.948 4.86507 25.5368 1.93374 25.5368C0.982495 25.5062 0.305515 26.1453 0.200426 27.0104C-0.063204 29.2634 -0.0660582 31.5603 0.187712 33.8318C0.282421 34.6787 1.29517 35.3077 2.15508 35.3077C4.76803 35.2413 7.27511 36.8578 8.32833 39.4181C9.37637 41.9753 8.70172 44.9556 6.65028 46.8371C6.00859 47.4269 5.9266 48.4121 6.46839 49.0969C7.86153 50.8725 9.46199 52.4878 11.2135 53.8986C11.9011 54.4523 12.9011 54.3747 13.4971 53.7177C15.2922 51.7327 18.5038 50.9981 20.9758 52.0358C23.5654 53.1193 25.1944 55.7364 25.0354 58.5466C24.9832 59.4296 25.6304 60.1992 26.5071 60.2994C27.654 60.4335 28.8069 60.5 29.9634 60.5C31.061 60.5 32.1588 60.44 33.2567 60.3178C34.1265 60.2218 34.7705 59.4719 34.7412 58.5998C34.6408 55.8192 36.2926 53.2478 38.8466 52.2024C41.3153 51.194 44.4908 51.932 46.2763 53.8921C46.8692 54.5374 47.8495 54.6158 48.5402 54.0815C50.3348 52.6743 51.9667 51.0599 53.3933 49.283C53.9473 48.5953 53.8686 47.5956 53.2145 47.0027C51.1265 45.1126 50.4495 42.104 51.5338 39.5196C52.5531 37.0864 55.0186 35.4528 57.6705 35.4528L58.0416 35.4626C58.9025 35.5324 59.6937 34.8694 59.7977 33.9911C60.0626 31.736 60.0655 29.4417 59.8107 27.1694ZM29.9995 47.7954C20.4473 47.7954 12.7042 40.0523 12.7042 30.5003C12.7042 20.9484 20.4475 13.2053 29.9995 13.2053C39.5514 13.2053 47.2947 20.9484 47.2947 30.5003C47.2947 33.7425 46.4008 36.7751 44.8484 39.3683L37.2752 31.7949C37.8235 30.5022 38.1131 29.1007 38.1128 27.6544C38.1128 24.8222 37.0098 22.1597 35.0069 20.1573C33.0045 18.1549 30.342 17.0521 27.5103 17.0521C26.5653 17.0521 25.6247 17.1777 24.7147 17.4255C24.3161 17.5342 23.9902 17.8627 23.8841 18.262C23.7756 18.6705 23.8978 19.089 24.217 19.4084C24.217 19.4084 27.9558 23.176 29.2068 24.4267C29.3378 24.5578 29.3375 24.8704 29.3191 24.9831L29.3074 25.0653C29.1813 26.4405 28.9382 28.0913 28.7376 28.7258C28.7106 28.7525 28.6852 28.7751 28.6577 28.8026C28.6289 28.8314 28.6024 28.8591 28.5747 28.8877C27.9319 29.094 26.2557 29.34 24.8587 29.465L24.8589 29.4575L24.7961 29.4733C24.785 29.4746 24.7642 29.4762 24.7367 29.4762C24.5857 29.4762 24.3636 29.4339 24.1617 29.2323C22.8596 27.9302 19.2674 24.3637 19.2674 24.3637C18.9452 24.0424 18.6146 23.975 18.3943 23.975C17.8808 23.975 17.421 24.346 17.2762 24.8782C16.2873 28.5376 17.3356 32.4739 20.0127 35.1512C22.0156 37.1539 24.6783 38.2567 27.5105 38.2567C28.9569 38.2567 30.3583 37.9674 31.6508 37.4191L39.3062 45.0745C36.6185 46.7943 33.4269 47.7954 29.9995 47.7954Z" fill="#84E4BE"/>
  </g>
  <defs>
    <clipPath id="clip0_7_5610">
      <rect width="60" height="60" fill="white" transform="translate(0 0.5)"/>
    </clipPath>
  </defs>
</svg>