<svg xmlns="http://www.w3.org/2000/svg" width="60" height="61" viewBox="0 0 60 61" fill="none">
  <g clip-path="url(#clip0_7_5649)">
    <path d="M22.1627 30.8456C24.0436 28.9647 25.2348 26.3314 25.2348 23.3847C25.2348 22.3189 24.9213 21.1277 24.4197 19.8738C23.8555 18.5571 23.1031 17.2405 22.2254 15.8612C22.2254 15.7985 22.1627 15.7985 22.1627 15.7358C20.3445 12.9772 17.962 10.2813 15.9558 7.96154L14.7019 6.51953L13.4479 7.96154C9.5608 12.4756 4.16895 18.6825 4.16895 23.3847C4.16895 26.2687 5.36017 28.902 7.24105 30.8456C9.12192 32.7264 11.7552 33.9176 14.7019 33.9176C17.5859 33.9176 20.2191 32.7264 22.1627 30.8456Z" fill="#84E4BE"/>
    <path d="M50.3131 0.876176L49.9997 0.5L49.6862 0.876176C47.3664 3.5721 44.1689 7.27116 44.1689 9.90439C44.1689 11.5345 44.7959 12.9765 45.8617 14.0423C46.9276 15.1082 48.3696 15.7351 49.9997 15.7351C51.6298 15.7351 53.0718 15.1082 54.1376 14.0423C55.2034 12.9765 55.8304 11.5345 55.8304 9.90439C55.8304 7.27116 52.6329 3.5721 50.3131 0.876176Z" fill="#84E4BE"/>
    <path d="M30.1881 9.5918C29.2476 10.7203 28.1818 11.9115 27.116 13.2282L25.4859 15.109C26.2382 16.3003 26.8652 17.4915 27.3668 18.6827C28.0564 20.3128 28.4326 21.8802 28.4326 23.3849C28.4326 27.1467 26.9279 30.5949 24.4201 33.1028C21.9122 35.6106 18.5266 37.1153 14.7022 37.1153C13.8244 37.1153 13.0094 37.0526 12.1944 36.8645C11.8809 36.8018 11.6301 36.7391 11.3166 36.6764C11.1912 37.178 11.0658 37.6796 10.9404 38.1811C10.7523 39.1216 10.627 39.9993 10.627 40.9398C10.627 46.3316 12.8213 51.2219 16.3323 54.7956C19.9059 58.3692 24.7962 60.5009 30.1881 60.5009C35.5799 60.5009 40.4702 58.3065 44.0439 54.7956C47.6175 51.2846 49.7492 46.3316 49.7492 40.9398C49.7492 32.3504 40.1567 21.3159 33.2602 13.2909C32.1944 11.9115 31.1912 10.7203 30.1881 9.5918Z" fill="#84E4BE"/>
  </g>
  <defs>
    <clipPath id="clip0_7_5649">
      <rect width="60" height="60" fill="white" transform="translate(0 0.5)"/>
    </clipPath>
  </defs>
</svg>