<svg xmlns="http://www.w3.org/2000/svg" width="60" height="60" viewBox="0 0 60 60" fill="none">
  <path d="M45.0375 3.75H14.9624C10.9874 3.75 7.76245 6.97495 7.76245 10.9499V54.375C7.76245 55.0875 8.15613 55.7437 8.81245 56.0624C9.44988 56.3813 10.2187 56.3062 10.7812 55.8562L16.4437 51.4874L22.0875 55.8562C22.7625 56.3813 23.7 56.3813 24.3749 55.8562L30.0187 51.4874L35.6625 55.8562C36.3374 56.3813 37.2749 56.3813 37.9687 55.8562L43.5749 51.4874L49.2187 55.8562C49.5562 56.1187 49.95 56.25 50.3624 56.25C50.6437 56.25 50.9249 56.1937 51.1874 56.0624C51.8437 55.7437 52.2374 55.0875 52.2374 54.375V10.9499C52.2374 6.97495 49.0125 3.75 45.0375 3.75ZM29.9999 28.125C33.6374 28.125 36.5812 31.1062 36.5812 34.7812C36.5812 37.7812 34.5937 40.2937 31.8749 41.1187V41.25C31.8749 42.2812 31.0312 43.125 29.9999 43.125C28.9687 43.125 28.1249 42.2812 28.1249 41.25V41.1187C25.4062 40.2937 23.4187 37.7812 23.4187 34.7812C23.4187 33.7312 24.2437 32.9062 25.2937 32.9062C26.3249 32.9062 27.1687 33.7312 27.1687 34.7812C27.1687 36.3749 28.4436 37.6687 29.9999 37.6687C31.5562 37.6687 32.8312 36.3749 32.8312 34.7812C32.8312 33.1688 31.5562 31.875 29.9999 31.875C26.3624 31.875 23.4187 28.8937 23.4187 25.2188C23.4187 22.2187 25.4062 19.7063 28.1249 18.8813V18.75C28.1249 17.7188 28.9687 16.875 29.9999 16.875C31.0312 16.875 31.8749 17.7188 31.8749 18.75V18.8813C34.5937 19.7063 36.5812 22.2187 36.5812 25.2188C36.5812 26.2688 35.7562 27.0938 34.7062 27.0938C33.675 27.0938 32.8312 26.2688 32.8312 25.2188C32.8312 23.625 31.5562 22.3312 29.9999 22.3312C28.4436 22.3312 27.1687 23.625 27.1687 25.2188C27.1687 26.8312 28.4436 28.125 29.9999 28.125Z" fill="#84E4BE"/>
</svg>