<svg xmlns="http://www.w3.org/2000/svg" width="60" height="61" viewBox="0 0 60 61" fill="none">
  <g clip-path="url(#clip0_7_5643)">
    <path d="M5.27494 11.9715C5.91397 12.5033 6.7925 12.6434 7.56524 12.3367C8.33798 12.0301 8.88141 11.3257 8.98194 10.5005H35.9999C37.6568 10.5005 38.9999 9.15732 38.9999 7.50047V5.50047C38.9999 3.84361 37.6568 2.50047 35.9999 2.50047H8.98194C8.88149 1.67541 8.33835 0.971141 7.5659 0.66433C6.79346 0.35752 5.91511 0.497189 5.27594 1.02847L0.807937 4.74947C0.293146 5.1878 -0.00270263 5.83043 -0.000968986 6.50655C0.000764654 7.18267 0.299905 7.82378 0.816937 8.25947L5.27494 11.9715ZM2.09994 6.27847L6.55694 2.56447C6.60333 2.52413 6.66247 2.50147 6.72394 2.50047C6.76501 2.50141 6.80548 2.51059 6.84294 2.52747C6.94111 2.56856 7.00362 2.6661 6.99994 2.77247V3.50047C6.99994 4.05275 7.44765 4.50047 7.99994 4.50047H35.9999C36.5522 4.50047 36.9999 4.94818 36.9999 5.50047V7.50047C36.9999 8.05275 36.5522 8.50047 35.9999 8.50047H7.99994C7.44765 8.50047 6.99994 8.94818 6.99994 9.50047V10.2285C7.00395 10.3343 6.94232 10.4317 6.84494 10.4735C6.75028 10.5193 6.6374 10.5044 6.55794 10.4355L2.10694 6.72947C2.03928 6.67262 2.00014 6.58883 1.99994 6.50047C1.99936 6.41544 2.03587 6.33438 2.09994 6.27847Z" fill="#84E4BE"/>
    <path d="M54.725 11.0293C54.086 10.4975 53.2074 10.3574 52.4347 10.6641C51.662 10.9707 51.1185 11.6751 51.018 12.5003H24C22.3431 12.5003 21 13.8435 21 15.5003V17.5003C21 19.1572 22.3431 20.5003 24 20.5003H51.018C51.1153 21.3272 51.6582 22.0342 52.432 22.3415C53.2058 22.6489 54.0859 22.5071 54.724 21.9723L59.192 18.2513C59.7068 17.813 60.0026 17.1703 60.0009 16.4942C59.9992 15.8181 59.7 15.177 59.183 14.7413L54.725 11.0293ZM57.9 16.7223L53.441 20.4363C53.3606 20.5032 53.2488 20.5174 53.1543 20.4728C53.0597 20.4282 52.9995 20.3329 53 20.2283V19.5003C53 18.948 52.5523 18.5003 52 18.5003H24C23.4477 18.5003 23 18.0526 23 17.5003V15.5003C23 14.948 23.4477 14.5003 24 14.5003H52C52.5523 14.5003 53 14.0526 53 13.5003V12.7723C52.996 12.6664 53.0576 12.569 53.155 12.5273C53.2495 12.4803 53.363 12.4954 53.442 12.5653L57.891 16.2713C57.9594 16.3278 57.9993 16.4116 58 16.5003C58.0006 16.5853 57.9641 16.6664 57.9 16.7223Z" fill="#84E4BE"/>
    <path d="M58 27.5012L52.785 27.5092C51.5506 27.5055 50.4619 28.3171 50.113 29.5012H46.94C46.4775 29.5029 46.0211 29.3953 45.608 29.1872L40.231 26.4932C37.5623 25.1732 34.4307 25.1732 31.762 26.4932L31.499 26.6252L31.231 26.4892C28.5621 25.1703 25.4309 25.1703 22.762 26.4892L17.387 29.1822C16.976 29.3916 16.5213 29.501 16.06 29.5012H9.887C9.53827 28.3178 8.45067 27.5064 7.217 27.5092L2 27.5012C0.89543 27.5012 0 28.3966 0 29.5012V45.5012C0 46.6058 0.89543 47.5012 2 47.5012L7.019 47.5092L10.019 48.7592C9.97275 50.0693 10.6373 51.3024 11.757 51.9842C12.3072 52.3139 12.9365 52.4884 13.578 52.4892C13.8817 52.4886 14.1841 52.4497 14.478 52.3732C14.504 52.3662 14.528 52.3532 14.554 52.3452C14.7694 53.3053 15.3671 54.136 16.209 54.6452C16.7594 54.9732 17.3883 55.146 18.029 55.1452C18.3327 55.1446 18.6351 55.1057 18.929 55.0292C18.955 55.0222 18.978 55.0092 19.004 55.0022C19.2213 55.9634 19.8216 56.7942 20.666 57.3022C21.481 57.793 22.4599 57.9333 23.38 57.6912C23.403 57.6852 23.424 57.6732 23.447 57.6672C23.6581 58.6134 24.247 59.4321 25.077 59.9332L25.091 59.9412L25.119 59.9592C25.6673 60.2891 26.2951 60.4637 26.935 60.4642C27.2387 60.4643 27.5411 60.4256 27.835 60.3492C28.4938 60.1785 29.0891 59.8208 29.549 59.3192L30.132 59.7722C30.7449 60.2456 31.4975 60.5023 32.272 60.5022C32.4329 60.5021 32.5936 60.4911 32.753 60.4692C33.6579 60.3501 34.4797 59.8799 35.041 59.1602C35.057 59.1422 35.073 59.1222 35.087 59.1032C35.6649 58.3384 35.91 57.373 35.767 56.4252L35.811 56.4202C36.7394 56.3024 37.5807 55.8145 38.144 55.0672C38.62 54.4499 38.8788 53.6927 38.88 52.9132C39.1069 52.9268 39.3347 52.9184 39.56 52.8882C40.4865 52.7698 41.326 52.2823 41.888 51.5362C42.3692 50.9163 42.6303 50.1539 42.63 49.3692C42.6306 48.9695 42.5651 48.5725 42.436 48.1942C42.928 48.0671 43.3847 47.8301 43.772 47.5012L52.772 47.5092H52.778L58 47.5012C59.1046 47.5012 60 46.6058 60 45.5012V29.5012C60 28.3966 59.1046 27.5012 58 27.5012ZM39.343 28.2852L44.708 30.9732C45.4006 31.3211 46.165 31.5019 46.94 31.5012H50.106L51.663 45.5072L44.922 45.5012C44.9931 45.178 45.0194 44.8466 45 44.5162C44.8858 43.3259 44.2669 42.2417 43.3 41.5382L33.2 34.4742C31.9231 33.5596 30.1561 33.7889 29.155 34.9992L24.511 40.5532C23.6493 41.5763 22.1286 41.725 21.085 40.8882C20.848 40.6997 20.7105 40.413 20.712 40.1102C20.7119 39.9026 20.7781 39.7005 20.901 39.5332L25.512 32.9442C26.2758 31.8535 27.2993 30.9703 28.49 30.3742L32.653 28.2882C34.7606 27.246 37.2344 27.2449 39.343 28.2852ZM2 29.5012L7.217 29.5092C7.44288 29.5092 7.65806 29.6055 7.80867 29.7738C7.95927 29.9422 8.03103 30.1667 8.006 30.3912L6.325 45.5082L2 45.5012V29.5012ZM12.784 50.2682C12.0234 49.803 11.7727 48.816 12.219 48.0442L12.661 47.2892C12.8708 46.9228 13.2194 46.6564 13.628 46.5502C13.7568 46.5176 13.8891 46.5012 14.022 46.5012C14.3039 46.502 14.5803 46.579 14.822 46.7242C15.3119 47.0194 15.6084 47.5523 15.601 48.1242C15.6022 48.4118 15.5277 48.6946 15.385 48.9442L14.943 49.6982C14.7332 50.065 14.3847 50.332 13.976 50.4392C13.5718 50.5447 13.1422 50.4831 12.784 50.2682ZM17.236 52.9292C16.4758 52.4636 16.2255 51.4768 16.672 50.7052L17.115 49.9482C17.325 49.5828 17.6731 49.3173 18.081 49.2112C18.2097 49.1779 18.3421 49.1608 18.475 49.1602C18.7569 49.1609 19.0334 49.238 19.275 49.3832C20.0196 49.8443 20.2724 50.808 19.85 51.5752V51.5812L19.397 52.3612L19.391 52.3732C19.1808 52.7336 18.8353 52.9951 18.4314 53.0995C18.0274 53.2039 17.5985 53.1426 17.24 52.9292H17.236ZM21.7 55.5852C20.9396 55.1284 20.683 54.148 21.122 53.3772L21.13 53.3662L21.572 52.6092C21.579 52.5982 21.584 52.5852 21.59 52.5732C21.8005 52.2183 22.1437 51.9617 22.5437 51.8602C22.9437 51.7587 23.3677 51.8206 23.722 52.0322C24.4859 52.4915 24.7413 53.478 24.296 54.2502L23.842 55.0302C23.6334 55.3898 23.2894 55.6509 22.887 55.7552C22.4845 55.8595 22.057 55.7983 21.7 55.5852ZM27.339 58.4122C26.9366 58.5188 26.5083 58.4575 26.152 58.2422L26.138 58.2332C25.3828 57.7791 25.1298 56.8042 25.569 56.0402L25.85 55.5562L26.029 55.2482C26.3084 54.7695 26.8207 54.4749 27.375 54.4742C27.6609 54.4753 27.9411 54.5538 28.186 54.7012C28.9436 55.1569 29.1963 56.1357 28.754 56.9012L28.292 57.6952C28.0821 58.0533 27.7368 58.3118 27.334 58.4122H27.339ZM40.465 45.9402C40.0295 45.6003 39.4009 45.6777 39.061 46.1132C38.7211 46.5487 38.7985 47.1773 39.234 47.5172L40.026 48.1372C40.3533 48.3891 40.5664 48.7613 40.6178 49.1711C40.6693 49.5809 40.5549 49.9942 40.3 50.3192C40.0582 50.642 39.6966 50.8538 39.2968 50.9069C38.897 50.96 38.4926 50.8498 38.175 50.6012L37.518 50.0892C37.5095 50.0816 37.5005 50.0746 37.491 50.0682C37.0544 49.7373 36.4328 49.8194 36.097 50.2522C35.7612 50.685 35.8361 51.3074 36.265 51.6482L36.282 51.6612C36.9581 52.1948 37.079 53.1731 36.553 53.8552C36.3104 54.1747 35.95 54.3838 35.5522 54.4356C35.1544 54.4875 34.7524 54.3779 34.436 54.1312C34.1338 53.8974 33.7247 53.8563 33.382 54.0252C33.0695 54.1777 32.8579 54.4809 32.8225 54.8268C32.7871 55.1728 32.9328 55.5125 33.208 55.7252C33.8582 56.2455 33.9937 57.1807 33.518 57.8642L33.482 57.9092C33.241 58.2303 32.8803 58.4403 32.482 58.4912C32.0804 58.546 31.6736 58.438 31.352 58.1912L30.609 57.6142C31.3988 55.9348 30.7902 53.9301 29.2 52.9732C28.3857 52.4816 27.4069 52.3408 26.487 52.5832C26.46 52.5902 26.437 52.6042 26.41 52.6112C26.193 51.6499 25.5926 50.819 24.748 50.3112C23.9332 49.8208 22.9548 49.6805 22.035 49.9222C22.009 49.9292 21.986 49.9422 21.961 49.9492C21.7499 49.005 21.1646 48.1868 20.3391 47.682C19.5137 47.1772 18.5187 47.0289 17.582 47.2712C17.556 47.2782 17.533 47.2922 17.507 47.2992C17.2912 46.3393 16.6936 45.5088 15.852 44.9992C15.0326 44.5098 14.0512 44.3696 13.1275 44.6098C12.2039 44.85 11.4152 45.4507 10.938 46.2772L10.613 46.8332L8.3 45.8752L9.894 31.5012H16.06C16.8334 31.5022 17.5964 31.3224 18.288 30.9762L23.651 28.2882C25.3505 27.4531 27.3015 27.2864 29.118 27.8212L27.593 28.5862C26.104 29.3313 24.8247 30.4364 23.871 31.8012L19.266 38.3822C18.3436 39.6746 18.5931 41.4626 19.834 42.4532C21.7295 43.9674 24.4869 43.6931 26.047 41.8352L30.687 36.2862C31.023 35.8776 31.619 35.8014 32.047 36.1122L42.115 43.1492C42.6116 43.5089 42.9331 44.0617 43 44.6712C43.0428 45.1107 42.8954 45.5475 42.595 45.8712C42.0038 46.4276 41.091 46.4572 40.465 45.9402ZM58 45.5012L53.676 45.5082L52 30.3912C51.9749 30.1664 52.047 29.9415 52.198 29.7731C52.349 29.6047 52.5648 29.5087 52.791 29.5092L58 29.5012V45.5012Z" fill="#84E4BE"/>
  </g>
  <defs>
    <clipPath id="clip0_7_5643">
      <rect width="60" height="60" fill="white" transform="translate(0 0.5)"/>
    </clipPath>
  </defs>
</svg>