<svg xmlns="http://www.w3.org/2000/svg" width="60" height="61" viewBox="0 0 60 61" fill="none">
  <path d="M6.28285 36.7488C9.75277 36.7488 12.5657 33.9507 12.5657 30.4989C12.5657 27.0472 9.75277 24.249 6.28285 24.249C2.81293 24.249 0 27.0472 0 30.4989C0 33.9507 2.81293 36.7488 6.28285 36.7488Z" fill="#84E4BE"/>
  <path d="M47.7418 60.4998C51.2118 60.4998 54.0247 57.7016 54.0247 54.2499C54.0247 50.7982 51.2118 48 47.7418 48C44.2719 48 41.459 50.7982 41.459 54.2499C41.459 57.7016 44.2719 60.4998 47.7418 60.4998Z" fill="#84E4BE"/>
  <path d="M47.7418 12.9998C51.2118 12.9998 54.0247 10.2016 54.0247 6.7499C54.0247 3.29818 51.2118 0.5 47.7418 0.5C44.2719 0.5 41.459 3.29818 41.459 6.7499C41.459 10.2016 44.2719 12.9998 47.7418 12.9998Z" fill="#84E4BE"/>
  <path d="M30.7189 17.8051C30.9996 18.289 31.569 18.5289 32.1137 18.3926C38.7018 16.7051 45.4361 20.5713 47.263 27.09C47.4159 27.6283 47.9096 27.9999 48.4718 28H58.7405C59.4345 28.0003 59.9974 27.441 59.9978 26.7507C59.9978 26.6843 59.9925 26.618 59.9821 26.5525C59.2554 22.0056 57.2774 17.7475 54.2671 14.2502C53.852 13.7737 53.1452 13.6793 52.6185 14.0302C51.178 14.989 49.4837 15.5007 47.7505 15.5002C42.9464 15.4832 39.0378 11.6484 38.9544 6.87022C38.9452 6.238 38.463 5.71219 37.831 5.64527C33.8907 5.23465 29.9085 5.75367 26.2076 7.16026C25.5596 7.40729 25.2356 8.13021 25.4839 8.77485C25.5076 8.83626 25.5361 8.89579 25.5692 8.95274L30.7189 17.8051Z" fill="#84E4BE"/>
  <path d="M58.7422 33H48.4735C47.9113 33.0001 47.4176 33.3718 47.2647 33.91C45.44 40.4304 38.7039 44.2977 32.1154 42.6074C31.5707 42.4711 31.0014 42.711 30.7206 43.1949L25.5838 52.0472C25.2366 52.645 25.4423 53.4095 26.0432 53.7549C26.1005 53.7878 26.1603 53.8162 26.222 53.8397C29.9192 55.2608 33.9049 55.7803 37.8454 55.3547C38.4774 55.2878 38.9596 54.7619 38.9688 54.1298C39.0244 49.3087 42.9983 45.4452 47.8448 45.5005C49.5453 45.5198 51.2035 46.0303 52.6177 46.9698C53.1468 47.3203 53.8555 47.2226 54.2689 46.7423C57.2778 43.2471 59.2557 38.9919 59.9838 34.4475C60.0934 33.7658 59.6268 33.1248 58.9416 33.0157C58.8756 33.0053 58.8089 33 58.7422 33Z" fill="#84E4BE"/>
  <path d="M26.177 39.2026C21.4349 34.359 21.4349 26.639 26.177 21.7953C26.5703 21.3935 26.6462 20.7802 26.363 20.2953L21.2337 11.4629C21.0495 11.1452 20.7344 10.9239 20.3718 10.8578C20.0115 10.7961 19.6416 10.8867 19.3514 11.1078C15.7019 14.0595 12.9575 17.9699 11.4299 22.3952C11.259 22.8887 11.4143 23.4359 11.8195 23.7677C15.558 26.7332 16.172 32.1519 13.1909 35.8708C12.7866 36.3752 12.3266 36.8328 11.8195 37.235C11.4143 37.5667 11.259 38.114 11.4299 38.6075C12.9585 43.0288 15.7019 46.9355 19.3489 49.8849C19.5733 50.0664 19.8538 50.1652 20.143 50.1649C20.2188 50.1644 20.2945 50.1577 20.3692 50.1448C20.7318 50.0787 21.047 49.8575 21.2311 49.5398L26.3604 40.7024C26.6445 40.2183 26.5694 39.6052 26.177 39.2026Z" fill="#84E4BE"/>
</svg>