<svg width="40" height="40" viewBox="0 0 40 40" fill="none" xmlns="http://www.w3.org/2000/svg">
<circle cx="20" cy="20" r="20" fill="#0D3829"/>
<g clip-path="url(#clip0_56_602)">
<path d="M20 20C20.9889 20 21.9556 19.7068 22.7779 19.1573C23.6001 18.6079 24.241 17.827 24.6194 16.9134C24.9978 15.9998 25.0969 14.9945 24.9039 14.0246C24.711 13.0546 24.2348 12.1637 23.5355 11.4645C22.8363 10.7652 21.9454 10.289 20.9755 10.0961C20.0055 9.90315 19.0002 10.0022 18.0866 10.3806C17.173 10.759 16.3921 11.3999 15.8427 12.2222C15.2932 13.0444 15 14.0111 15 15C15.0013 16.3257 15.5285 17.5967 16.4659 18.5341C17.4033 19.4715 18.6743 19.9987 20 20ZM20 11.6667C20.6593 11.6667 21.3037 11.8622 21.8519 12.2284C22.4001 12.5947 22.8273 13.1153 23.0796 13.7244C23.3319 14.3335 23.3979 15.0037 23.2693 15.6503C23.1407 16.2969 22.8232 16.8909 22.357 17.357C21.8908 17.8232 21.2969 18.1407 20.6503 18.2693C20.0037 18.3979 19.3335 18.3319 18.7244 18.0796C18.1153 17.8273 17.5947 17.4001 17.2284 16.8519C16.8622 16.3037 16.6667 15.6593 16.6667 15C16.6667 14.1159 17.0179 13.2681 17.643 12.643C18.2681 12.0179 19.1159 11.6667 20 11.6667Z" fill="white"/>
<path d="M20 21.667C18.0116 21.6692 16.1052 22.4601 14.6991 23.8661C13.2931 25.2722 12.5022 27.1785 12.5 29.167C12.5 29.388 12.5878 29.6 12.7441 29.7562C12.9004 29.9125 13.1123 30.0003 13.3333 30.0003C13.5543 30.0003 13.7663 29.9125 13.9226 29.7562C14.0789 29.6 14.1667 29.388 14.1667 29.167C14.1667 27.6199 14.7812 26.1362 15.8752 25.0422C16.9692 23.9482 18.4529 23.3337 20 23.3337C21.5471 23.3337 23.0308 23.9482 24.1248 25.0422C25.2188 26.1362 25.8333 27.6199 25.8333 29.167C25.8333 29.388 25.9211 29.6 26.0774 29.7562C26.2337 29.9125 26.4457 30.0003 26.6667 30.0003C26.8877 30.0003 27.0996 29.9125 27.2559 29.7562C27.4122 29.6 27.5 29.388 27.5 29.167C27.4978 27.1785 26.7069 25.2722 25.3009 23.8661C23.8948 22.4601 21.9884 21.6692 20 21.667Z" fill="white"/>
</g>
<defs>
<clipPath id="clip0_56_602">
<rect width="20" height="20" fill="white" transform="translate(10 10)"/>
</clipPath>
</defs>
</svg>
