<svg xmlns="http://www.w3.org/2000/svg" width="18" height="18" viewBox="0 0 18 18" fill="none">
  <path d="M4.51797 18C3.53087 18 2.60184 17.5935 1.96313 16.9548C0.569582 15.5032 0.569582 13.2387 1.96313 11.7871L9.62765 4.06452C10.0922 3.6 10.6728 3.36774 11.2535 3.36774C11.8922 3.36774 12.4728 3.6 12.8793 4.06452C13.3438 4.52903 13.576 5.10968 13.576 5.69032C13.576 6.27097 13.3438 6.90968 12.8793 7.31613L7.97281 12.2226C7.79643 12.399 7.51047 12.399 7.3341 12.2226C7.15772 12.0462 7.15772 11.7602 7.3341 11.5839L12.2406 6.67742C12.5309 6.3871 12.647 6.03871 12.647 5.63226C12.647 5.22581 12.4728 4.87742 12.2406 4.5871C11.9502 4.29677 11.6018 4.18064 11.1954 4.18064C10.7889 4.18064 10.4406 4.35484 10.1502 4.5871L2.54378 12.3677C1.44055 13.471 1.44055 15.2129 2.54378 16.3161C3.06636 16.8387 3.76313 17.129 4.51797 17.129C5.27281 17.129 5.96958 16.8387 6.49216 16.3161L14.9696 7.83871C16.5373 6.27097 16.5373 3.71613 14.9696 2.14839C14.2147 1.39355 13.1696 0.987097 12.1244 0.987097C11.0212 0.987097 10.0341 1.39355 9.27926 2.14839L3.9091 7.51854C3.73228 7.69537 3.44559 7.69537 3.26877 7.51854C3.09258 7.34236 3.09186 7.05692 3.26715 6.87984L8.64055 1.45161C9.56958 0.522581 10.7889 0 12.1244 0C13.4599 0 14.6793 0.522581 15.6083 1.45161C17.5244 3.36774 17.5244 6.50323 15.6083 8.41935L7.07281 16.8968C6.37603 17.5935 5.447 18 4.51797 18Z" fill="#84E4BF"/>
</svg>