<svg xmlns="http://www.w3.org/2000/svg" width="11" height="14" viewBox="0 0 11 14" fill="none">
  <path fill-rule="evenodd" clip-rule="evenodd" d="M3.90234 3.98535L3.91267 6.10478H6.9536C7.49368 6.10478 7.93137 5.66565 7.92867 5.12558L7.9279 4.96456C7.92528 4.4244 7.48336 3.98535 6.9432 3.98535H4.31863H3.90234ZM8.31618 9.32618L8.31533 9.15603C8.31246 8.55359 7.8201 8.06445 7.21775 8.06445H6.96468H3.92383L3.93534 10.4178H7.22918C7.83153 10.4178 8.31914 9.92785 8.31618 9.32618ZM9.28062 6.92041C9.88577 7.478 10.2695 8.27267 10.2738 9.1561L10.2746 9.32626C10.2828 11.0082 8.9206 12.377 7.23802 12.377H7.16356L7.16788 13.2772H5.20878L5.20438 12.377H4.40142L4.40582 13.2772H2.44672L2.44232 12.377H1.985H1.0134L1.00384 10.4179H1.97544L1.96401 8.06453L1.95437 6.10459L1.94405 3.98516H0.972452L0.962891 2.0253H2.39181L2.38648 0.923828H4.34557L4.3509 2.0253H5.15395L5.14854 0.923828H7.10772L7.11305 2.03452C8.65111 2.12785 9.88035 3.40413 9.88797 4.96437L9.88873 5.12538C9.89203 5.80151 9.66332 6.4229 9.28062 6.92041Z" fill="white"/>
</svg>