<svg xmlns="http://www.w3.org/2000/svg" width="106" height="70" viewBox="0 0 106 70" fill="none">
  <path d="M10.6951 36.5463C6.70224 38.5536 1.90135 38.219 0 37.8009V70H53H106V15.4287C95.5426 -7.6543 84.3722 2.04726 80.0942 9.78342L72.7265 22.5376C69.4783 28.6708 59.4646 38.8881 45.3946 30.6919C31.3247 22.4958 23.5291 25.7436 21.3901 28.392C19.4888 30.2738 14.6879 34.5391 10.6951 36.5463Z" fill="url(#paint0_linear_4_5268)"/>
  <path d="M1.13989 37.6838C3.00035 38.1006 7.698 38.4341 11.605 36.4333C15.5119 34.4324 20.2096 30.1807 22.07 28.3049C24.163 25.6649 31.7909 22.4274 45.5583 30.5975C59.3257 38.7676 69.1241 28.5828 72.3023 22.4691L79.5116 9.75548C83.6976 2.04393 94.6278 -7.62677 104.86 15.3828" stroke="white" stroke-width="2" stroke-linecap="round"/>
  <defs>
    <linearGradient id="paint0_linear_4_5268" x1="42.7419" y1="-50" x2="43.603" y2="83.0018" gradientUnits="userSpaceOnUse">
      <stop stop-color="#ECE9FF"/>
      <stop offset="0.0001" stop-color="#EDEAFF"/>
      <stop offset="0.847197" stop-color="white" stop-opacity="0"/>
    </linearGradient>
  </defs>
</svg>