<svg xmlns="http://www.w3.org/2000/svg" width="12" height="12" viewBox="0 0 12 12" fill="none">
  <g clip-path="url(#clip0_27_1311)">
    <path d="M11.8533 7.64639C11.7595 7.55266 11.6324 7.5 11.4998 7.5C11.3672 7.5 11.2401 7.55266 11.1463 7.64639L9.74979 9.04289L8.3533 7.64639C8.25899 7.55531 8.13269 7.50492 8.0016 7.50606C7.8705 7.5072 7.74509 7.55978 7.65239 7.65248C7.55968 7.74519 7.5071 7.87059 7.50596 8.00169C7.50482 8.13279 7.55522 8.25909 7.6463 8.35339L9.04279 9.74989L7.6463 11.1464C7.59854 11.1925 7.56045 11.2477 7.53425 11.3087C7.50804 11.3697 7.49425 11.4353 7.49367 11.5017C7.49309 11.5681 7.50575 11.6339 7.53089 11.6954C7.55603 11.7568 7.59315 11.8126 7.6401 11.8596C7.68705 11.9065 7.74287 11.9437 7.80432 11.9688C7.86577 11.9939 7.93161 12.0066 7.998 12.006C8.06439 12.0054 8.13 11.9916 8.191 11.9654C8.252 11.9392 8.30717 11.9011 8.3533 11.8534L9.74979 10.4569L11.1463 11.8534C11.2406 11.9445 11.3669 11.9949 11.498 11.9937C11.6291 11.9926 11.7545 11.94 11.8472 11.8473C11.9399 11.7546 11.9925 11.6292 11.9936 11.4981C11.9948 11.367 11.9444 11.2407 11.8533 11.1464L10.4568 9.74989L11.8533 8.35339C11.947 8.25963 11.9997 8.13247 11.9997 7.99989C11.9997 7.86731 11.947 7.74016 11.8533 7.64639Z" fill="#F45757"/>
    <path d="M6 11C5.0111 11 4.0444 10.7068 3.22215 10.1574C2.39991 9.60794 1.75904 8.82705 1.38061 7.91342C1.00217 6.99979 0.90315 5.99446 1.09608 5.02455C1.289 4.05465 1.76521 3.16373 2.46447 2.46447C3.16373 1.76521 4.05465 1.289 5.02455 1.09608C5.99446 0.90315 6.99979 1.00217 7.91342 1.38061C8.82705 1.75904 9.60794 2.39991 10.1574 3.22215C10.7068 4.0444 11 5.0111 11 6C11 6.13261 11.0527 6.25979 11.1464 6.35356C11.2402 6.44732 11.3674 6.5 11.5 6.5C11.6326 6.5 11.7598 6.44732 11.8536 6.35356C11.9473 6.25979 12 6.13261 12 6C12 4.81331 11.6481 3.65328 10.9888 2.66658C10.3295 1.67989 9.39246 0.910851 8.2961 0.456726C7.19975 0.00259972 5.99335 -0.11622 4.82946 0.115291C3.66558 0.346802 2.59648 0.918247 1.75736 1.75736C0.918247 2.59648 0.346802 3.66558 0.115291 4.82946C-0.11622 5.99335 0.00259972 7.19975 0.456726 8.2961C0.910851 9.39246 1.67989 10.3295 2.66658 10.9888C3.65328 11.6481 4.81331 12 6 12C6.13261 12 6.25979 11.9473 6.35356 11.8536C6.44732 11.7598 6.5 11.6326 6.5 11.5C6.5 11.3674 6.44732 11.2402 6.35356 11.1464C6.25979 11.0527 6.13261 11 6 11Z" fill="#F45757"/>
    <path d="M6.00028 3C5.86767 3 5.74049 3.05268 5.64673 3.14645C5.55296 3.24021 5.50028 3.36739 5.50028 3.5V5.793L4.14678 7.14649C4.09903 7.19262 4.06094 7.24779 4.03473 7.30879C4.00853 7.36979 3.99474 7.4354 3.99416 7.50179C3.99358 7.56818 4.00623 7.63402 4.03137 7.69547C4.05651 7.75692 4.09364 7.81274 4.14059 7.85969C4.18753 7.90664 4.24336 7.94376 4.30481 7.9689C4.36625 7.99404 4.43209 8.0067 4.49848 8.00612C4.56487 8.00554 4.63048 7.99175 4.69148 7.96554C4.75249 7.93934 4.80766 7.90125 4.85378 7.85349L6.35378 6.3535C6.44755 6.25975 6.50025 6.13259 6.50028 6V3.5C6.50028 3.36739 6.4476 3.24021 6.35383 3.14645C6.26006 3.05268 6.13289 3 6.00028 3Z" fill="#F45757"/>
  </g>
  <defs>
    <clipPath id="clip0_27_1311">
      <rect width="12" height="12" fill="white"/>
    </clipPath>
  </defs>
</svg>