<svg xmlns="http://www.w3.org/2000/svg" width="8" height="8" viewBox="0 0 8 8" fill="none">
  <g clip-path="url(#clip0_56_1515)">
    <path d="M4.0013 2.66699C3.73759 2.66699 3.47981 2.74519 3.26054 2.8917C3.04128 3.03821 2.87038 3.24645 2.76946 3.49008C2.66855 3.73372 2.64214 4.0018 2.69359 4.26045C2.74504 4.51909 2.87202 4.75666 3.05849 4.94313C3.24496 5.1296 3.48254 5.25659 3.74118 5.30804C3.99982 5.35949 4.26791 5.33308 4.51155 5.23216C4.75518 5.13125 4.96342 4.96035 5.10993 4.74109C5.25644 4.52182 5.33464 4.26403 5.33464 4.00033C5.33464 3.6467 5.19416 3.30756 4.94411 3.05752C4.69406 2.80747 4.35492 2.66699 4.0013 2.66699ZM4.0013 4.66699C3.86945 4.66699 3.74056 4.62789 3.63092 4.55464C3.52129 4.48138 3.43584 4.37726 3.38538 4.25545C3.33492 4.13363 3.32172 3.99959 3.34745 3.87027C3.37317 3.74094 3.43666 3.62216 3.5299 3.52892C3.62313 3.43569 3.74192 3.37219 3.87124 3.34647C4.00056 3.32075 4.13461 3.33395 4.25643 3.38441C4.37824 3.43486 4.48236 3.52031 4.55562 3.62995C4.62887 3.73958 4.66797 3.86847 4.66797 4.00033C4.66797 4.17714 4.59773 4.34671 4.47271 4.47173C4.34768 4.59675 4.17811 4.66699 4.0013 4.66699Z" fill="white"/>
    <path d="M7.09728 4.63333L6.94928 4.548C7.01591 4.18548 7.01591 3.81385 6.94928 3.45133L7.09728 3.366C7.21109 3.30034 7.31086 3.2129 7.39088 3.10869C7.4709 3.00447 7.52961 2.88551 7.56366 2.75861C7.59771 2.6317 7.60643 2.49933 7.58932 2.36905C7.57221 2.23878 7.52961 2.11315 7.46395 1.99933C7.39829 1.88552 7.31085 1.78576 7.20664 1.70573C7.10242 1.62571 6.98346 1.567 6.85655 1.53295C6.72965 1.49891 6.59728 1.49019 6.467 1.5073C6.33673 1.5244 6.21109 1.56701 6.09728 1.63267L5.94895 1.71833C5.66879 1.47897 5.34684 1.29342 4.99928 1.171V1C4.99928 0.734784 4.89393 0.48043 4.70639 0.292893C4.51885 0.105357 4.2645 0 3.99928 0C3.73407 0 3.47971 0.105357 3.29218 0.292893C3.10464 0.48043 2.99928 0.734784 2.99928 1V1.171C2.65174 1.29386 2.3299 1.47987 2.04995 1.71967L1.90095 1.63333C1.67109 1.50073 1.39798 1.46486 1.14168 1.53362C0.885376 1.60238 0.66689 1.77015 0.534282 2C0.401674 2.22985 0.365806 2.50297 0.434569 2.75927C0.503333 3.01557 0.671094 3.23406 0.900949 3.36667L1.04895 3.452C0.982319 3.81452 0.982319 4.18615 1.04895 4.54867L0.900949 4.634C0.671094 4.76661 0.503333 4.98509 0.434569 5.24139C0.365806 5.49769 0.401674 5.77081 0.534282 6.00067C0.66689 6.23052 0.885376 6.39828 1.14168 6.46705C1.39798 6.53581 1.67109 6.49994 1.90095 6.36733L2.04928 6.28167C2.32954 6.52106 2.65161 6.70662 2.99928 6.829V7C2.99928 7.26522 3.10464 7.51957 3.29218 7.70711C3.47971 7.89464 3.73407 8 3.99928 8C4.2645 8 4.51885 7.89464 4.70639 7.70711C4.89393 7.51957 4.99928 7.26522 4.99928 7V6.829C5.34682 6.70614 5.66867 6.52013 5.94862 6.28033L6.09762 6.36633C6.32747 6.49894 6.60059 6.53481 6.85689 6.46605C7.11319 6.39728 7.33167 6.22952 7.46428 5.99967C7.59689 5.76981 7.63276 5.49669 7.56399 5.24039C7.49523 4.98409 7.32747 4.76561 7.09762 4.633L7.09728 4.63333ZM6.24795 3.37467C6.36083 3.78369 6.36083 4.21565 6.24795 4.62467C6.22824 4.69586 6.23273 4.77158 6.26073 4.83994C6.28872 4.9083 6.33863 4.96542 6.40262 5.00233L6.76395 5.211C6.84055 5.2552 6.89646 5.32803 6.91937 5.41345C6.94228 5.49887 6.93032 5.5899 6.88612 5.6665C6.84191 5.7431 6.76909 5.79901 6.68367 5.82192C6.59824 5.84483 6.50722 5.83287 6.43062 5.78867L6.06862 5.57933C6.00458 5.54225 5.93002 5.52752 5.8567 5.53748C5.78337 5.54744 5.71544 5.58151 5.66362 5.63433C5.36692 5.93722 4.99314 6.15333 4.58262 6.25933C4.51096 6.27776 4.44747 6.31949 4.40215 6.37797C4.35682 6.43645 4.33225 6.50835 4.33228 6.58233V7C4.33228 7.08841 4.29716 7.17319 4.23465 7.2357C4.17214 7.29821 4.08735 7.33333 3.99895 7.33333C3.91054 7.33333 3.82576 7.29821 3.76325 7.2357C3.70073 7.17319 3.66562 7.08841 3.66562 7V6.58267C3.66565 6.50868 3.64107 6.43679 3.59575 6.37831C3.55043 6.31983 3.48694 6.27809 3.41528 6.25967C3.00473 6.15323 2.63106 5.93665 2.33462 5.63333C2.28279 5.58051 2.21486 5.54644 2.14153 5.53648C2.06821 5.52652 1.99365 5.54125 1.92962 5.57833L1.56828 5.78733C1.53036 5.80957 1.48841 5.82408 1.44486 5.83003C1.4013 5.83599 1.357 5.83327 1.3145 5.82203C1.272 5.8108 1.23214 5.79127 1.19722 5.76456C1.1623 5.73786 1.13301 5.70451 1.11103 5.66644C1.08905 5.62837 1.07481 5.58633 1.06915 5.54274C1.06348 5.49914 1.06649 5.45486 1.07801 5.41244C1.08953 5.37001 1.10933 5.33029 1.13626 5.29554C1.16319 5.2608 1.19673 5.23173 1.23495 5.21L1.59628 5.00133C1.66026 4.96442 1.71017 4.90729 1.73817 4.83894C1.76616 4.77058 1.77066 4.69486 1.75095 4.62367C1.63807 4.21465 1.63807 3.78269 1.75095 3.37367C1.7703 3.30263 1.76559 3.22718 1.73755 3.1591C1.70951 3.09102 1.65972 3.03414 1.59595 2.99733L1.23462 2.78867C1.15801 2.74446 1.10211 2.67164 1.07919 2.58622C1.05628 2.5008 1.06825 2.40977 1.11245 2.33317C1.15665 2.25656 1.22947 2.20066 1.3149 2.17775C1.40032 2.15484 1.49135 2.1668 1.56795 2.211L1.92995 2.42033C1.99381 2.4575 2.06821 2.4724 2.14146 2.46269C2.21471 2.45298 2.28265 2.4192 2.33462 2.36667C2.63131 2.06378 3.00509 1.84767 3.41562 1.74167C3.48749 1.72319 3.55115 1.68125 3.59649 1.6225C3.64184 1.56375 3.66628 1.49155 3.66595 1.41733V1C3.66595 0.911595 3.70107 0.82681 3.76358 0.764298C3.82609 0.701786 3.91088 0.666667 3.99928 0.666667C4.08769 0.666667 4.17247 0.701786 4.23498 0.764298C4.2975 0.82681 4.33262 0.911595 4.33262 1V1.41733C4.33258 1.49132 4.35716 1.56321 4.40248 1.62169C4.4478 1.68017 4.51129 1.72191 4.58295 1.74033C4.99362 1.84672 5.36741 2.06329 5.66395 2.36667C5.71577 2.41949 5.7837 2.45356 5.85703 2.46352C5.93036 2.47348 6.00491 2.45875 6.06895 2.42167L6.43028 2.21267C6.46821 2.19043 6.51015 2.17592 6.55371 2.16997C6.59726 2.16401 6.64156 2.16673 6.68406 2.17797C6.72656 2.1892 6.76642 2.20873 6.80134 2.23544C6.83626 2.26214 6.86556 2.29549 6.88754 2.33356C6.90952 2.37163 6.92375 2.41367 6.92942 2.45726C6.93508 2.50086 6.93207 2.54514 6.92055 2.58756C6.90903 2.62999 6.88924 2.66972 6.8623 2.70446C6.83537 2.7392 6.80183 2.76827 6.76362 2.79L6.40228 2.99867C6.33863 3.03557 6.28898 3.09249 6.26106 3.16056C6.23315 3.22864 6.22853 3.30403 6.24795 3.375V3.37467Z" fill="white"/>
  </g>
  <defs>
    <clipPath id="clip0_56_1515">
      <rect width="8" height="8" fill="white"/>
    </clipPath>
  </defs>
</svg>