<svg xmlns="http://www.w3.org/2000/svg" width="160" height="140" viewBox="0 0 160 140" fill="none">
  <g clip-path="url(#clip0_27_1483)">
    <path d="M17.2197 98.3604C17.4297 102.03 17.4397 105.7 17.4697 109.37C17.4397 113.04 17.4297 116.71 17.2197 120.38C17.0097 116.71 16.9997 113.04 16.9697 109.37C16.9997 105.7 17.0097 102.03 17.2197 98.3604Z" fill="white"/>
    <path d="M6.20996 109.37C9.87996 109.16 13.55 109.15 17.22 109.12C20.89 109.15 24.56 109.16 28.23 109.37C24.56 109.58 20.89 109.59 17.22 109.62C13.55 109.59 9.87996 109.58 6.20996 109.37Z" fill="white"/>
    <path d="M12.54 114.06C13.96 112.36 15.49 110.77 17.05 109.2C18.62 107.64 20.21 106.11 21.91 104.69C20.49 106.39 18.96 107.98 17.4 109.55C15.83 111.1 14.24 112.63 12.54 114.06Z" fill="white"/>
    <path d="M21.91 114.06C20.21 112.64 18.62 111.11 17.05 109.55C15.49 107.98 13.96 106.39 12.54 104.69C14.24 106.11 15.83 107.64 17.4 109.2C18.95 110.77 20.48 112.36 21.91 114.06Z" fill="white"/>
    <path d="M79.8496 0C80.0596 3.67 80.0696 7.34 80.0996 11.01C80.0696 14.68 80.0596 18.35 79.8496 22.02C79.6396 18.35 79.6296 14.68 79.5996 11.01C79.6296 7.34 79.6396 3.67 79.8496 0Z" fill="white"/>
    <path d="M68.8398 11.0098C72.5098 10.7998 76.1798 10.7898 79.8498 10.7598C83.5198 10.7898 87.1898 10.7998 90.8598 11.0098C87.1898 11.2198 83.5198 11.2298 79.8498 11.2598C76.1798 11.2298 72.5098 11.2198 68.8398 11.0098Z" fill="white"/>
    <path d="M75.1597 15.6903C76.5797 13.9903 78.1097 12.4003 79.6697 10.8303C81.2397 9.27031 82.8297 7.74031 84.5297 6.32031C83.1097 8.02031 81.5797 9.61031 80.0197 11.1803C78.4497 12.7303 76.8597 14.2603 75.1597 15.6903Z" fill="white"/>
    <path d="M84.5297 15.6903C82.8297 14.2703 81.2397 12.7403 79.6697 11.1803C78.1097 9.61031 76.5897 8.02031 75.1597 6.32031C76.8597 7.74031 78.4497 9.27031 80.0197 10.8303C81.5697 12.4003 83.0997 13.9903 84.5297 15.6903Z" fill="white"/>
    <path d="M142.52 23.0898C142.61 25.9198 142.68 28.7598 142.71 31.5898L142.77 40.0898L142.71 48.5898C142.68 51.4198 142.61 54.2598 142.52 57.0898C142.43 54.2598 142.36 51.4198 142.33 48.5898L142.27 40.0898L142.33 31.5898C142.36 28.7598 142.43 25.9198 142.52 23.0898Z" fill="white"/>
    <path d="M125.52 40.0898C128.35 39.9998 131.19 39.9298 134.02 39.8998L142.52 39.8398L151.02 39.8998C153.85 39.9298 156.69 39.9998 159.52 40.0898C156.69 40.1798 153.85 40.2498 151.02 40.2798L142.52 40.3398L134.02 40.2798C131.19 40.2498 128.35 40.1798 125.52 40.0898Z" fill="white"/>
    <path d="M135.29 47.3196C137.56 44.7596 139.96 42.3396 142.35 39.9096C144.78 37.5196 147.2 35.1196 149.76 32.8496C147.5 35.4096 145.09 37.8296 142.7 40.2596C140.27 42.6496 137.85 45.0496 135.29 47.3196Z" fill="white"/>
    <path d="M149.76 47.3196C147.2 45.0496 144.78 42.6496 142.35 40.2596C139.96 37.8296 137.56 35.4096 135.29 32.8496C137.85 35.1096 140.27 37.5196 142.7 39.9096C145.09 42.3396 147.49 44.7596 149.76 47.3196Z" fill="white"/>
    <path d="M76.43 70.4102H35.79V131.91H76.43V70.4102Z" fill="#84E4BF"/>
    <path d="M60.8097 75.0205H49.1997V131.911H60.8097V75.0205Z" fill="#0A5450"/>
    <path d="M76.4297 131.91H127.49L127.49 70.4102H76.4297V131.91Z" fill="#4B9D7D"/>
    <g style="mix-blend-mode:multiply" opacity="0.73">
      <path d="M76.43 72.2598H35.77V77.7798H76.43V72.2598Z" fill="#D8C58F"/>
    </g>
    <path d="M76.4198 57.4707H34.0698V75.7107H76.4198V57.4707Z" fill="#E2FFF4"/>
    <path d="M60.8097 57.4707H49.1997V75.7107H60.8097V57.4707Z" fill="#0B615E"/>
    <path d="M108.84 75.0205H97.23V131.911H108.84V75.0205Z" fill="#0B615E"/>
    <g style="mix-blend-mode:multiply" opacity="0.44">
      <path d="M76.4198 77.7803H127.51V72.2603H76.4198V77.7803Z" fill="#EAD9A2"/>
    </g>
    <path d="M76.4196 75.7002H129.64V57.4602L76.4196 57.4602V75.7002Z" fill="#B6F0DA"/>
    <path d="M108.84 57.4707H97.23V75.7107H108.84V57.4707Z" fill="#03746A"/>
    <path d="M118.77 37.3004C116.68 40.5304 108.05 52.4904 94.1599 53.8604C93.4599 53.9304 93.0198 53.1404 93.4498 52.5904C97.1598 47.9504 109.67 33.3804 118.32 36.1104C118.82 36.2704 119.05 36.8504 118.77 37.2904V37.3004Z" fill="#0A5450"/>
    <path d="M84.5698 46.3202L84.5998 54.0102L92.3598 53.9802C92.3598 53.9802 109.59 32.6402 118.59 36.2802L105.32 23.6202C104.53 22.8902 103.39 22.7202 102.43 23.2002C98.5998 25.1002 89.0698 30.8402 85.1798 42.4702C84.7698 43.7102 84.5498 45.0102 84.5498 46.3202H84.5698Z" fill="#03746A"/>
    <path d="M44.3398 37.6202C46.4598 40.8402 55.1897 52.7102 69.0897 53.9702C69.7897 54.0302 70.2298 53.2402 69.7898 52.7002C66.0398 48.0902 53.3998 33.6302 44.7798 36.4402C44.2798 36.6002 44.0498 37.1802 44.3398 37.6302V37.6202Z" fill="#0A5450"/>
    <path d="M78.6097 46.3002L78.6397 54.0402L70.8797 54.0702C70.8797 54.0702 53.4697 32.8802 44.4897 36.6002L57.6397 23.8302C58.4197 23.1002 59.5597 22.9202 60.5297 23.3802C64.4397 25.2702 74.2497 31.0802 78.1297 43.0402C78.4697 44.0902 78.5997 45.1902 78.6097 46.3002Z" fill="#03746A"/>
    <path d="M86.4997 49.0101C86.4997 49.0101 87.6897 44.4501 91.3897 43.1501C91.3897 43.1501 89.1397 44.8601 88.9497 48.0201C88.9497 48.0201 93.4897 40.5201 98.1797 40.0801C98.1797 40.0801 90.9197 45.7201 89.9297 49.6601L86.4897 49.0001L86.4997 49.0101Z" fill="#0A5450"/>
    <path d="M76.3699 49.0607C76.3699 49.0607 75.1399 44.5107 71.4299 43.2407C71.4299 43.2407 73.6999 44.9307 73.9099 48.0807C73.9099 48.0807 69.2999 40.6207 64.6099 40.2207C64.6099 40.2207 71.9199 45.8007 72.9399 49.7307L76.3699 49.0407V49.0607Z" fill="#0A5450"/>
    <path d="M70.7209 57.4744L92.5606 57.3791C93.5713 57.3747 94.3871 56.5518 94.3826 55.5411L94.3577 49.8312C94.3533 48.8205 93.5304 48.0048 92.5198 48.0092L70.68 48.1045C69.6693 48.1089 68.8536 48.9318 68.858 49.9424L68.8829 55.6524C68.8873 56.663 69.7102 57.4788 70.7209 57.4744Z" fill="#03746A"/>
  </g>
  <defs>
    <radialGradient id="paint0_radial_27_1483" cx="0" cy="0" r="1" gradientUnits="userSpaceOnUse" gradientTransform="translate(79.8331 130.024) scale(81.1437 5.6518)">
      <stop offset="0.04" stop-color="#F1D8C4"/>
      <stop offset="0.19" stop-color="#F1D8C4" stop-opacity="0.99"/>
      <stop offset="0.31" stop-color="#F1D8C4" stop-opacity="0.94"/>
      <stop offset="0.43" stop-color="#F1D8C4" stop-opacity="0.87"/>
      <stop offset="0.55" stop-color="#F1D8C4" stop-opacity="0.76"/>
      <stop offset="0.66" stop-color="#F1D8C4" stop-opacity="0.63"/>
      <stop offset="0.77" stop-color="#F1D8C4" stop-opacity="0.46"/>
      <stop offset="0.88" stop-color="#F1D8C4" stop-opacity="0.26"/>
      <stop offset="0.98" stop-color="#F1D8C4" stop-opacity="0.04"/>
      <stop offset="1" stop-color="#F1D8C4" stop-opacity="0"/>
    </radialGradient>
    <clipPath id="clip0_27_1483">
      <rect width="159.7" height="139.02" fill="white"/>
    </clipPath>
  </defs>
</svg>