<svg xmlns="http://www.w3.org/2000/svg" width="8" height="8" viewBox="0 0 8 8" fill="none">
  <g clip-path="url(#clip0_56_1512)">
    <path d="M2.33333 7.33333H1.66667C1.40145 7.33333 1.1471 7.22798 0.95956 7.04044C0.772024 6.8529 0.666667 6.59855 0.666667 6.33333V1.66667C0.666667 1.40145 0.772024 1.1471 0.95956 0.95956C1.1471 0.772024 1.40145 0.666667 1.66667 0.666667H2.33333C2.42174 0.666667 2.50652 0.631548 2.56904 0.569036C2.63155 0.506523 2.66667 0.421739 2.66667 0.333333C2.66667 0.244928 2.63155 0.160143 2.56904 0.0976311C2.50652 0.035119 2.42174 0 2.33333 0L1.66667 0C1.2248 0.000529286 0.801186 0.176294 0.48874 0.48874C0.176294 0.801186 0.000529286 1.2248 0 1.66667L0 6.33333C0.000529286 6.7752 0.176294 7.19881 0.48874 7.51126C0.801186 7.82371 1.2248 7.99947 1.66667 8H2.33333C2.42174 8 2.50652 7.96488 2.56904 7.90237C2.63155 7.83986 2.66667 7.75507 2.66667 7.66667C2.66667 7.57826 2.63155 7.49348 2.56904 7.43096C2.50652 7.36845 2.42174 7.33333 2.33333 7.33333Z" fill="#F45757"/>
    <path d="M7.66701 3.66669L2.40801 3.67736C2.43725 3.62306 2.47381 3.57303 2.51668 3.52869L3.80968 2.23569C3.84152 2.20494 3.86691 2.16816 3.88438 2.1275C3.90185 2.08683 3.91104 2.04309 3.91143 1.99883C3.91181 1.95457 3.90338 1.91067 3.88662 1.86971C3.86986 1.82874 3.84511 1.79153 3.81381 1.76023C3.78251 1.72893 3.7453 1.70418 3.70433 1.68742C3.66336 1.67066 3.61947 1.66223 3.57521 1.66261C3.53095 1.66299 3.48721 1.67219 3.44654 1.68966C3.40588 1.70713 3.36909 1.73252 3.33835 1.76436L2.04468 3.05736C1.79472 3.3074 1.6543 3.64648 1.6543 4.00003C1.6543 4.35358 1.79472 4.69266 2.04468 4.94269L3.33768 6.23569C3.36843 6.26753 3.40521 6.29292 3.44588 6.31039C3.48655 6.32786 3.53029 6.33706 3.57455 6.33744C3.6188 6.33783 3.6627 6.3294 3.70366 6.31263C3.74463 6.29587 3.78185 6.27112 3.81314 6.23983C3.84444 6.20853 3.86919 6.17131 3.88595 6.13035C3.90271 6.08938 3.91115 6.04549 3.91076 6.00123C3.91038 5.95697 3.90118 5.91323 3.88371 5.87256C3.86624 5.83189 3.84085 5.79511 3.80901 5.76436L2.51601 4.47136C2.47871 4.43294 2.44614 4.3902 2.41901 4.34403L7.66701 4.33336C7.75542 4.33336 7.8402 4.29824 7.90271 4.23573C7.96523 4.17322 8.00035 4.08843 8.00035 4.00003C8.00035 3.91162 7.96523 3.82684 7.90271 3.76433C7.8402 3.70181 7.75542 3.66669 7.66701 3.66669Z" fill="#F45757"/>
  </g>
  <defs>
    <clipPath id="clip0_56_1512">
      <rect width="8" height="8" fill="white"/>
    </clipPath>
  </defs>
</svg>