<svg xmlns="http://www.w3.org/2000/svg" width="12" height="12" viewBox="0 0 12 12" fill="none">
  <g clip-path="url(#clip0_27_1320)">
    <path d="M11.5 3.50008H9.0955L9.4955 0.567577C9.50436 0.502507 9.50033 0.436328 9.48361 0.372819C9.4669 0.30931 9.43784 0.249714 9.3981 0.197435C9.35836 0.145155 9.30871 0.101216 9.25198 0.0681253C9.19526 0.0350347 9.13257 0.0134407 9.0675 0.00457651C9.00243 -0.00428771 8.93625 -0.000248658 8.87274 0.0164631C8.80923 0.0331748 8.74964 0.0622319 8.69736 0.101975C8.64508 0.141719 8.60114 0.19137 8.56805 0.248095C8.53496 0.30482 8.51336 0.367507 8.5045 0.432577L8.0865 3.50008H4.5955L4.9955 0.567577C5.00436 0.502507 5.00033 0.436328 4.98361 0.372819C4.9669 0.30931 4.93784 0.249714 4.8981 0.197435C4.85836 0.145155 4.80871 0.101216 4.75198 0.0681253C4.69526 0.0350347 4.63257 0.0134408 4.5675 0.00457652C4.50243 -0.0042877 4.43625 -0.000248645 4.37274 0.0164631C4.30923 0.0331748 4.24964 0.0622319 4.19736 0.101975C4.14508 0.141719 4.10114 0.19137 4.06805 0.248095C4.03496 0.30482 4.01336 0.367507 4.0045 0.432577L3.5865 3.50008H1C0.867392 3.50008 0.740215 3.55276 0.646447 3.64652C0.552678 3.74029 0.5 3.86747 0.5 4.00008C0.5 4.13269 0.552678 4.25986 0.646447 4.35363C0.740215 4.4474 0.867392 4.50008 1 4.50008H3.45L3.041 7.50008H0.5C0.367392 7.50008 0.240215 7.55276 0.146447 7.64652C0.0526784 7.74029 0 7.86747 0 8.00008C0 8.13268 0.0526784 8.25986 0.146447 8.35363C0.240215 8.4474 0.367392 8.50008 0.5 8.50008H2.9045L2.5045 11.4326C2.4866 11.564 2.52163 11.6971 2.6019 11.8027C2.68216 11.9083 2.80108 11.9777 2.9325 11.9956C3.06391 12.0135 3.19706 11.9784 3.30264 11.8982C3.40822 11.8179 3.4776 11.699 3.4955 11.5676L3.9135 8.50008H7.4045L7.0045 11.4326C6.9866 11.564 7.02163 11.6971 7.1019 11.8027C7.18216 11.9083 7.30108 11.9777 7.4325 11.9956C7.56391 12.0135 7.69706 11.9784 7.80264 11.8982C7.90823 11.8179 7.9776 11.699 7.9955 11.5676L8.4135 8.50008H11C11.1326 8.50008 11.2598 8.4474 11.3536 8.35363C11.4473 8.25986 11.5 8.13268 11.5 8.00008C11.5 7.86747 11.4473 7.74029 11.3536 7.64652C11.2598 7.55276 11.1326 7.50008 11 7.50008H8.55L8.959 4.50008H11.5C11.6326 4.50008 11.7598 4.4474 11.8536 4.35363C11.9473 4.25986 12 4.13269 12 4.00008C12 3.86747 11.9473 3.74029 11.8536 3.64652C11.7598 3.55276 11.6326 3.50008 11.5 3.50008ZM7.541 7.50008H4.05L4.459 4.50008H7.95L7.541 7.50008Z" fill="white" fill-opacity="0.64"/>
  </g>
  <defs>
    <clipPath id="clip0_27_1320">
      <rect width="12" height="12" fill="white"/>
    </clipPath>
  </defs>
</svg>