<svg xmlns="http://www.w3.org/2000/svg" width="24" height="24" viewBox="0 0 24 24" fill="none">
  <g clip-path="url(#clip0_38_247)">
    <path d="M18.7458 20.3343C18.8334 20.4323 18.9007 20.5467 18.9441 20.6708C18.9874 20.7949 19.0058 20.9263 18.9983 21.0576C18.9908 21.1888 18.9574 21.3173 18.9002 21.4356C18.843 21.554 18.763 21.6599 18.6648 21.7473L17.0788 23.1613C16.8071 23.4303 16.4848 23.6429 16.1306 23.7869C15.7764 23.9309 15.3972 24.0034 15.0148 24.0003C14.6183 24.0011 14.2254 23.9236 13.8589 23.7722C13.4924 23.6209 13.1593 23.3986 12.8788 23.1183L11.3348 21.7443C11.2367 21.657 11.1568 21.5512 11.0996 21.4329C11.0424 21.3147 11.009 21.1864 11.0014 21.0553C10.986 20.7905 11.0764 20.5304 11.2528 20.3323C11.4292 20.1342 11.677 20.0142 11.9418 19.9988C12.0729 19.9912 12.2043 20.0095 12.3283 20.0527C12.4524 20.0958 12.5667 20.163 12.6648 20.2503L13.9998 21.4443V14.0003C13.9998 13.7351 14.1052 13.4807 14.2927 13.2932C14.4802 13.1056 14.7346 13.0003 14.9998 13.0003C15.265 13.0003 15.5194 13.1056 15.7069 13.2932C15.8945 13.4807 15.9998 13.7351 15.9998 14.0003V21.4453L17.3348 20.2533C17.5327 20.0771 17.7925 19.9866 18.0571 20.0018C18.3216 20.017 18.5694 20.1366 18.7458 20.3343ZM18.3558 7.36128C18.1841 7.30796 18.0283 7.21292 17.9023 7.08466C17.7763 6.9564 17.6841 6.79891 17.6338 6.62628C17.1043 4.92637 16.0229 3.45167 14.5608 2.43569C13.0986 1.41971 11.3394 0.920525 9.56151 1.01717C7.78367 1.11382 6.08888 1.80077 4.74549 2.96926C3.40211 4.13775 2.48691 5.72099 2.14482 7.46828C1.7938 9.23529 2.07708 11.0695 2.94482 12.6483C1.93326 13.1705 1.11072 13.9965 0.592733 15.0103C0.0747427 16.024 -0.112671 17.1746 0.0568164 18.3003C0.317468 19.6081 1.01763 20.7874 2.04103 21.6424C3.06444 22.4973 4.3495 22.9765 5.68282 23.0003H7.99982C8.26503 23.0003 8.51939 22.8949 8.70692 22.7074C8.89446 22.5199 8.99982 22.2655 8.99982 22.0003C8.99982 21.7351 8.89446 21.4807 8.70692 21.2932C8.51939 21.1056 8.26503 21.0003 7.99982 21.0003H5.68282C4.82877 20.9839 4.00502 20.681 3.34381 20.1402C2.6826 19.5994 2.2223 18.8521 2.03682 18.0183C1.92823 17.3018 2.04671 16.5694 2.37564 15.9237C2.70457 15.2781 3.22742 14.7516 3.87082 14.4183C4.32941 14.1648 4.66974 13.741 4.81816 13.2385C4.96657 12.736 4.91112 12.1952 4.66382 11.7333C4.27553 10.9927 4.04631 10.1792 3.99087 9.34486C3.93544 8.51053 4.055 7.67382 4.3419 6.88841C4.6288 6.103 5.0767 5.38623 5.65686 4.78407C6.23702 4.18191 6.93664 3.70767 7.71084 3.39176C8.48504 3.07585 9.31672 2.92525 10.1525 2.94962C10.9884 2.97399 11.8099 3.17279 12.5643 3.53327C13.3188 3.89376 13.9896 4.40796 14.5337 5.04289C15.0778 5.67783 15.4832 6.41948 15.7238 7.22028C15.8718 7.70299 16.1355 8.14224 16.4919 8.49986C16.8483 8.85748 17.2866 9.12263 17.7688 9.27228C19.0751 9.66977 20.2057 10.503 20.9722 11.633C21.7386 12.763 22.0946 14.1216 21.9808 15.4823C21.9055 16.5403 21.519 17.5524 20.8698 18.3913C20.7082 18.6016 20.6367 18.8675 20.6711 19.1305C20.7055 19.3936 20.843 19.6321 21.0533 19.7938C21.2636 19.9554 21.5296 20.0269 21.7926 19.9925C22.0556 19.9581 22.2942 19.8206 22.4558 19.6103C23.3368 18.4616 23.8649 17.0816 23.9758 15.6383C24.1268 13.824 23.6514 12.0127 22.6287 10.5065C21.606 9.00031 20.0979 7.8902 18.3558 7.36128Z" fill="white"/>
  </g>
  <defs>
    <clipPath id="clip0_38_247">
      <rect width="24" height="24" fill="white"/>
    </clipPath>
  </defs>
</svg>