<svg xmlns="http://www.w3.org/2000/svg" width="8" height="8" viewBox="0 0 8 8" fill="none">
  <g clip-path="url(#clip0_56_1518)">
    <path d="M1.83203 5.66602C2.10817 5.66602 2.33203 5.44216 2.33203 5.16602C2.33203 4.88987 2.10817 4.66602 1.83203 4.66602C1.55589 4.66602 1.33203 4.88987 1.33203 5.16602C1.33203 5.44216 1.55589 5.66602 1.83203 5.66602Z" fill="white"/>
    <path d="M6.33333 1H1.66667C1.2248 1.00053 0.801186 1.17629 0.48874 1.48874C0.176294 1.80119 0.000529286 2.2248 0 2.66667L0 5.33333C0.000529286 5.7752 0.176294 6.19881 0.48874 6.51126C0.801186 6.82371 1.2248 6.99947 1.66667 7H6.33333C6.7752 6.99947 7.19881 6.82371 7.51126 6.51126C7.82371 6.19881 7.99947 5.7752 8 5.33333V2.66667C7.99947 2.2248 7.82371 1.80119 7.51126 1.48874C7.19881 1.17629 6.7752 1.00053 6.33333 1ZM1.66667 1.66667H6.33333C6.59855 1.66667 6.8529 1.77202 7.04044 1.95956C7.22798 2.1471 7.33333 2.40145 7.33333 2.66667H0.666667C0.666667 2.40145 0.772024 2.1471 0.95956 1.95956C1.1471 1.77202 1.40145 1.66667 1.66667 1.66667ZM6.33333 6.33333H1.66667C1.40145 6.33333 1.1471 6.22798 0.95956 6.04044C0.772024 5.8529 0.666667 5.59855 0.666667 5.33333V3.33333H7.33333V5.33333C7.33333 5.59855 7.22798 5.8529 7.04044 6.04044C6.8529 6.22798 6.59855 6.33333 6.33333 6.33333Z" fill="white"/>
  </g>
  <defs>
    <clipPath id="clip0_56_1518">
      <rect width="8" height="8" fill="white"/>
    </clipPath>
  </defs>
</svg>