<svg width="662" height="504" viewBox="0 0 662 504" fill="none" xmlns="http://www.w3.org/2000/svg">
<g style="mix-blend-mode:multiply" opacity="0.18">
</g>
<path d="M26.3415 472.946C-3.87545 401.992 31.7765 371.791 70.666 379.276C109.555 386.76 156.501 343.976 115.366 243.967C74.2308 143.959 180.239 71.8954 257.235 91.7364C334.231 111.578 361.205 -105.385 496.727 83.5648C622.539 258.991 528.22 471.237 528.22 471.237L277.281 472.08L26.3406 472.922L26.3415 472.946Z" fill="#53C599" fill-opacity="0.28"/>
<g style="mix-blend-mode:multiply" opacity="0.18">
<path d="M134.763 415.922C171.507 428.76 235.402 364.069 202.744 268.96C170.086 173.85 232.315 115.836 292.783 145.142C353.251 174.448 370.026 30.1324 442.539 63.0106C493.064 85.9329 533.493 144.228 555.539 213.159C566.821 248.415 569.685 321.738 569.791 384.977C586.237 307.858 591.121 194.817 522.318 91.2857C393.868 -101.99 358.898 113.212 282.688 90.6064C206.477 68.0004 97.8789 135.9 135.291 237.065C172.704 338.23 124.21 379.132 85.6232 370.242C47.0368 361.352 10.2934 390.13 37.8686 461.943L78.2746 463.301C69.2472 416.145 102.363 404.631 134.775 415.957L134.763 415.922Z" fill="#84E4BF"/>
</g>
<path d="M150.745 262.341C141.433 262.341 140.922 248.334 150.223 247.879C150.479 247.868 150.734 247.857 150.989 247.857C152.654 247.857 154.252 248.123 155.751 248.6C156.994 241.02 163.575 235.226 171.511 235.226C179.447 235.226 186.317 241.275 187.349 249.1C189.269 248.178 191.434 247.657 193.709 247.657C194.985 247.657 196.217 247.823 197.394 248.123C205.529 250.221 203.831 262.33 195.418 262.33H150.756L150.745 262.341Z" fill="#84E4BF"/>
<path d="M320.959 434.785C205.284 434.785 111.512 428.921 111.512 421.688C111.512 414.455 205.284 408.591 320.959 408.591C436.633 408.591 530.406 414.455 530.406 421.688C530.406 428.921 436.633 434.785 320.959 434.785Z" fill="#B1FFE1"/>
<path d="M391.379 426.449C370.998 426.449 354.476 425.271 354.476 423.818C354.476 422.366 370.998 421.188 391.379 421.188C411.761 421.188 428.283 422.366 428.283 423.818C428.283 425.271 411.761 426.449 391.379 426.449Z" fill="#53C599"/>
<path d="M197.282 234.027H430.503C435.382 234.027 439.338 237.982 439.338 242.862V403.474C439.338 408.353 435.382 412.309 430.503 412.309H197.282C192.403 412.309 188.447 408.353 188.447 403.474V242.862C188.447 237.982 192.403 234.027 197.282 234.027Z" fill="#366050"/>
<path d="M221.943 399.122V247.2C221.943 246.293 222.679 245.558 223.586 245.558H418.305C419.212 245.558 419.948 246.293 419.948 247.2V399.122C419.948 400.029 419.212 400.765 418.305 400.765H223.586C222.679 400.765 221.943 400.029 221.943 399.122Z" fill="#53C599"/>
<path d="M223.431 245.558H418.483C419.293 245.558 419.959 246.224 419.959 247.034V251.262H230.268C229.457 251.262 228.792 251.928 228.792 252.739V400.765H223.42C222.609 400.765 221.943 400.099 221.943 399.288V247.034C221.943 246.224 222.609 245.558 223.42 245.558H223.431Z" fill="#84E4BF"/>
<path d="M197.292 323.162C197.292 318.7 200.911 315.093 205.373 315.093C209.834 315.093 213.441 318.711 213.441 323.162C213.441 327.613 209.823 331.231 205.373 331.231C200.922 331.231 197.292 327.613 197.292 323.162Z" fill="white"/>
<path d="M418.483 400.766H313.543C319.414 405.061 323.998 408.923 330.502 412.309H431.402C435.786 412.309 439.338 408.757 439.338 404.373V241.963C439.338 237.59 435.786 234.027 431.402 234.027H261.522C260.124 237.8 258.892 241.652 257.815 245.559H418.483C419.304 245.559 419.97 246.225 419.97 247.046V399.301C419.97 400.111 419.304 400.777 418.483 400.777V400.766Z" fill="#366050"/>
<path d="M394.986 206.182L405.5 296.226C406.202 302.241 401.895 307.687 395.88 308.389L255.059 324.832C249.044 325.535 243.598 321.228 242.896 315.212L232.382 225.168C231.679 219.153 235.986 213.707 242.002 213.005L382.822 196.562C388.838 195.86 394.283 200.167 394.986 206.182Z" fill="white"/>
<path d="M233.442 234.061L232.399 225.148C231.7 219.133 236.006 213.683 242.022 212.984L382.833 196.547C388.849 195.847 394.298 200.154 394.998 206.169L396.041 215.082L233.442 234.061Z" fill="#366050"/>
<path d="M379.44 208.989C379.629 210.609 381.094 211.763 382.714 211.575C384.335 211.386 385.489 209.921 385.3 208.301C385.111 206.68 383.646 205.526 382.026 205.715C380.406 205.903 379.251 207.368 379.44 208.989Z" fill="white"/>
<path d="M365.323 210.631C365.511 212.251 366.976 213.406 368.597 213.217C370.217 213.028 371.372 211.563 371.183 209.943C370.994 208.322 369.529 207.168 367.909 207.357C366.288 207.545 365.134 209.01 365.323 210.631Z" fill="#53C599"/>
<path d="M350.682 212.34C350.871 213.961 352.336 215.115 353.956 214.926C355.577 214.738 356.731 213.273 356.542 211.652C356.354 210.032 354.889 208.877 353.268 209.066C351.648 209.255 350.493 210.72 350.682 212.34Z" fill="#84E4BF"/>
<path d="M376.676 271.187L356.343 235.76L346.865 236.914L351.404 274.262L347.298 274.761L348.263 282.653L352.37 282.153L353.591 292.187L362.115 291.154L360.894 281.121L377.631 279.09L376.665 271.199L376.676 271.187ZM359.939 273.219L357.409 252.453L368.696 272.153L359.928 273.219H359.939Z" fill="#84E4BF"/>
<path d="M333.556 251.986C332.48 243.141 327.208 238.657 318.684 239.689C310.16 240.721 306.109 246.348 307.185 255.194L310.681 283.94C311.758 292.786 317.03 297.27 325.554 296.238C334.078 295.205 338.129 289.578 337.052 280.733L333.556 251.986ZM328.429 282.342C328.906 286.293 327.352 288.002 324.588 288.335C321.825 288.668 319.905 287.381 319.427 283.43L315.798 253.585C315.321 249.633 316.875 247.924 319.638 247.591C322.402 247.258 324.322 248.546 324.799 252.497L328.429 282.342Z" fill="#84E4BF"/>
<path d="M298.973 280.632L278.64 245.205L269.162 246.359L273.701 283.707L269.594 284.206L270.56 292.097L274.667 291.598L275.888 301.631L284.411 300.599L283.191 290.566L299.928 288.535L298.962 280.643L298.973 280.632ZM282.236 282.663L279.706 261.897L290.993 281.598L282.225 282.663H282.236Z" fill="#84E4BF"/>
<path d="M407.317 344.017C407.317 344.017 409.215 352.452 408.904 361.076C408.616 368.79 409.537 419.534 409.537 419.534H403.344C403.344 419.534 394.52 379.789 394.187 376.659C393.854 373.518 389.415 342.141 389.415 342.141L407.317 344.028V344.017Z" fill="#4BAC87"/>
<path d="M403.201 341.709C403.201 341.709 401.769 352.553 399.35 360.255C396.93 367.958 385.01 419.534 385.01 419.534H378.817C378.817 419.534 379.96 379.789 380.382 376.659C380.815 373.518 383.945 342.142 383.945 342.142L403.201 341.709Z" fill="#33785D"/>
<path d="M384.5 419.524V423.852H372.702C372.036 423.852 371.77 422.987 372.325 422.609C374.045 421.455 376.808 419.879 379.383 419.524H384.5Z" fill="#4BAC87"/>
<path d="M409.229 419.524V423.852H397.43C396.764 423.852 396.498 422.987 397.053 422.609C398.773 421.455 401.537 419.879 404.112 419.524H409.229Z" fill="#4BAC87"/>
<path d="M386.696 285.459C386.696 285.459 386.696 285.459 386.685 285.459C386.685 285.448 386.707 285.437 386.718 285.426C386.763 285.359 386.818 285.304 386.874 285.248C386.94 285.182 387.007 285.115 387.085 285.049C387.151 285.004 387.207 284.96 387.285 284.915C387.384 284.849 387.506 284.793 387.629 284.749C387.695 284.716 387.762 284.693 387.839 284.66C388.05 284.594 388.283 284.538 388.55 284.505C392.124 284.039 393.6 285.104 393.6 285.104C393.6 285.104 397.717 284.649 399.971 286.602C401.513 287.945 407.185 298.323 398.017 302.085C397.74 302.196 397.473 302.296 397.207 302.396C397.118 302.429 397.04 302.452 396.963 302.474C396.796 302.529 396.619 302.585 396.463 302.629C396.363 302.651 396.275 302.674 396.186 302.696C396.053 302.729 395.908 302.762 395.775 302.796C395.675 302.818 395.586 302.829 395.498 302.84C395.376 302.862 395.254 302.884 395.143 302.896C395.054 302.907 394.965 302.918 394.876 302.918C394.765 302.918 394.665 302.94 394.554 302.94C394.465 302.94 394.388 302.94 394.31 302.94C394.21 302.94 394.121 302.94 394.022 302.94C393.944 302.94 393.866 302.929 393.788 302.918C393.7 302.918 393.622 302.896 393.533 302.885C393.467 302.873 393.389 302.862 393.322 302.84C393.245 302.818 393.167 302.807 393.1 302.785C393.034 302.762 392.967 302.74 392.912 302.718C392.845 302.696 392.778 302.663 392.712 302.64C392.656 302.618 392.59 302.585 392.534 302.552C392.479 302.518 392.412 302.485 392.357 302.452C392.301 302.418 392.246 302.385 392.201 302.352C392.146 302.318 392.101 302.274 392.046 302.23C392.002 302.185 391.946 302.152 391.902 302.108C391.857 302.063 391.813 302.019 391.768 301.974C391.724 301.93 391.68 301.886 391.646 301.841C391.602 301.797 391.569 301.741 391.535 301.697C391.502 301.653 391.458 301.597 391.424 301.542C391.391 301.497 391.369 301.442 391.336 301.397C391.302 301.342 391.269 301.286 391.236 301.231C391.214 301.186 391.191 301.142 391.169 301.098C390.192 299.1 390.77 296.214 390.77 296.214L387.917 291.253C387.917 291.253 385.342 287.324 386.674 285.437L386.696 285.459Z" fill="#4BAC87"/>
<path d="M393.644 294.283C393.644 294.283 394.843 293.085 395.753 294.283C396.652 295.482 396.052 298.19 394.554 298.346C394.554 298.346 395.009 302.252 398.006 302.108V305.26H390.947V302.852C390.947 302.852 386.585 301.054 386.74 297.446C386.896 293.839 387.939 291.287 387.939 291.287C387.939 291.287 390.348 293.995 393.655 294.294L393.644 294.283Z" fill="#C6E4D9"/>
<path d="M392.566 303.85C391.867 304.139 391.989 304.583 391.956 305.249H390.935V302.84C390.935 302.84 392.644 303.384 395.152 301.952C395.152 301.952 393.698 303.373 392.555 303.85H392.566Z" fill="#366050"/>
<path d="M391.124 288.523C391.124 288.523 394.787 287.069 395.209 288.156C395.486 288.867 394.776 289.488 393.799 290.11L394.665 290.254C394.854 290.287 394.931 290.531 394.776 290.654C394.532 290.842 393.877 290.975 392.49 291.031L391.124 288.523Z" fill="#C6E4D9"/>
<path d="M364.976 297.701C371.958 292.529 391.026 288.389 391.026 288.389L392.602 291.253C392.602 291.253 375.287 297.956 376.43 298.955C377.096 299.544 385.565 303.417 388.428 304.727C389.039 305.004 389.716 305.137 390.393 305.126L399.161 305.082C399.161 305.082 405.487 304.327 410.46 310.043C414.91 315.16 422.469 327.013 422.469 327.013L409.738 345.737L408.329 347.802V347.779V347.957C408.329 347.957 407.874 348.001 407.075 348.079C402.979 348.456 389.86 349.5 382.923 348.024L382.735 347.979L383.068 317.257C371.98 308.478 366.686 301.708 364.799 299.577C364.299 299.011 364.399 298.145 364.999 297.69L364.976 297.701ZM407.696 339.588L408.939 336.869L412.89 328.223L406.331 320.865L407.507 337.002L407.696 339.577V339.588Z" fill="#366050"/>
<path d="M408.95 336.881L407.707 339.589L408.306 347.78L408.317 347.802L409.727 345.738L408.95 336.881Z" fill="#1E5F46"/>
<path d="M386.01 316.158C387.186 317.013 386.887 324.616 387.186 329.366C387.675 337.324 388.152 344.205 387.797 348.645C385.999 348.523 384.323 348.334 382.913 348.034L382.725 347.99L383.057 317.268C371.97 308.489 366.675 301.718 364.789 299.588C364.289 299.021 364.389 298.156 364.988 297.701C364.988 297.701 373.757 307.257 386.021 316.158H386.01Z" fill="#1E5F46"/>
<path d="M380.371 376.659C380.682 374.394 382.402 357.424 383.334 348.146L387.785 348.634C387.785 348.634 381.292 402.053 380.859 419.534H378.795C378.795 419.534 379.938 379.788 380.36 376.659H380.371Z" fill="#4BAC87"/>
<path d="M451.206 404.496C451.206 404.496 453.115 402.709 451.838 395.938C450.551 389.168 447.299 382.675 448.897 375.328C450.495 367.98 463.004 349.467 463.048 348.246C463.093 347.014 466.911 369.778 460.44 378.757C453.969 387.725 453.192 390.833 453.481 395.55C453.77 400.267 453.414 404.063 452.704 405.161L451.217 404.496H451.206Z" fill="#0C4630"/>
<path d="M452.391 390.888C453.146 393.907 453.601 401.476 452.391 403.286C452.28 403.452 452.114 403.363 451.914 403.041C452.28 401.787 452.524 399.601 451.825 395.938C450.549 389.168 447.286 382.675 448.884 375.327C450.482 367.98 462.991 349.467 463.035 348.246C463.035 348.246 461.148 363.674 454.8 374.284C450.249 381.887 451.625 387.858 452.38 390.877L452.391 390.888Z" fill="#84E4BF"/>
<path d="M448.928 404.029C448.928 404.029 452.601 394.85 446.375 386.903C440.148 378.957 430.181 368.757 429.982 364.717C429.982 364.717 427.418 383.907 435.531 389.334C443.644 394.762 449.327 395.627 447.918 403.985L448.928 404.018V404.029Z" fill="#0C4630"/>
<path d="M440.173 385.483C449.218 392.065 449.951 399.646 448.552 403.164C448.441 403.441 448.241 403.608 447.964 403.697C449.174 395.628 443.535 394.718 435.533 389.346C427.42 383.919 429.984 364.729 429.984 364.729C429.984 364.729 431.138 378.913 440.173 385.495V385.483Z" fill="#84E4BF"/>
<path d="M454.968 404.229C454.968 404.229 453.791 399.368 454.413 394.129C455.046 388.879 460.517 385.927 465.645 380.389C468.276 377.536 469.064 362.464 467.421 361.065C467.421 361.065 476.455 372.02 475.068 380.045C473.67 388.069 458.93 393.274 457.565 397.159C456.2 401.033 456.311 404.285 456.311 404.285L454.968 404.24V404.229Z" fill="#0C4630"/>
<path d="M470.487 365.371C473.472 373.462 470.409 383.263 460.487 389.345C453.184 393.829 455.503 403.141 455.503 403.141L454.305 399.467C454.194 397.88 454.182 396.026 454.416 394.117C455.048 388.867 460.52 385.915 465.648 380.377C468.189 377.624 469 363.506 467.59 361.253C468.001 361.775 469.177 363.296 470.476 365.36L470.487 365.371Z" fill="#84E4BF"/>
<path opacity="0.56" d="M467.59 361.265C467.49 361.132 467.424 361.065 467.424 361.065C467.479 361.11 467.534 361.187 467.59 361.265Z" fill="#0C4630"/>
<path d="M447.031 403.63C447.031 403.63 444.911 395.772 439.673 394.706C434.434 393.652 428.418 385.905 428.085 384.384C428.085 384.384 428.973 398.99 447.031 403.63Z" fill="#0C4630"/>
<path d="M439.972 397.303C443.179 398.913 444.522 401.066 444.988 403.03C428.906 397.858 428.085 384.384 428.085 384.384C428.151 384.684 428.44 385.239 428.906 385.916C430.482 388.68 434.3 394.462 439.972 397.303Z" fill="#84E4BF"/>
<path d="M435.687 400.732H463.09L459.838 421.199C459.594 422.753 458.251 423.896 456.675 423.896H442.091C440.515 423.896 439.183 422.753 438.928 421.199L435.676 400.732H435.687Z" fill="#84E4BF"/>
<path opacity="0.56" d="M442.337 400.732H463.104L462.56 404.118H442.87L445.589 421.199C445.834 422.753 447.177 423.896 448.742 423.896H442.104C440.528 423.896 439.196 422.753 438.952 421.199L435.7 400.732H442.337Z" fill="#0C4630"/>
<path d="M239.237 364.229H363.111V389.412H239.237V364.229Z" fill="#84E4BF"/>
<g style="mix-blend-mode:multiply" opacity="0.29">
<path d="M239.237 364.229H363.111V370.344H239.237V364.229Z" fill="#53C599"/>
</g>
<path d="M352.346 364.229H341.036L344.066 370.344H355.387L352.346 364.229Z" fill="#74CBA9"/>
<path d="M326.872 364.229H315.563L318.604 370.344H329.902L326.872 364.229Z" fill="#74CBA9"/>
<path d="M301.404 364.229H290.105L293.135 370.344H304.434L301.404 364.229Z" fill="#74CBA9"/>
<path d="M275.931 364.229H264.632L267.662 370.344H278.961L275.931 364.229Z" fill="#74CBA9"/>
<path d="M239.246 364.229V364.395L242.199 370.344H253.486L250.456 364.229H239.246Z" fill="#74CBA9"/>
<path d="M338.96 389.412H347.695V423.852H338.96V389.412Z" fill="#84E4BF"/>
<path d="M253.988 389.412H262.723V423.852H253.988V389.412Z" fill="#84E4BF"/>
<path d="M338.96 360.289H347.695V364.195H338.96V360.289Z" fill="#84E4BF"/>
<path d="M253.988 360.289H262.723V364.195H253.988V360.289Z" fill="#84E4BF"/>
<path opacity="0.56" d="M347.695 393.719H340.947V423.853H338.96V393.719V389.413V389.391H347.695V393.719Z" fill="#0C4630"/>
<path opacity="0.56" d="M262.721 393.719H256.572V423.853H253.986V393.719V389.413V389.391H262.721V393.719Z" fill="#0C4630"/>
<path opacity="0.56" d="M340.947 363.708H347.695V364.207H338.96V364.196V363.708V360.289H340.947V363.708Z" fill="#0C4630"/>
<path opacity="0.56" d="M256.572 360.289V363.708H262.721V364.207H253.986V364.196V363.708V360.289H256.572Z" fill="#0C4630"/>
<path d="M341.036 364.229L353.533 389.412H363.111V385.938L352.345 364.229H341.036Z" fill="white"/>
<path d="M326.876 364.229L339.373 389.412H328.063L315.566 364.229H326.876Z" fill="white"/>
<path d="M290.104 364.229L302.591 389.412H313.9L301.403 364.229H290.104Z" fill="white"/>
<path d="M264.632 364.229L277.118 389.412H288.428L275.93 364.229H264.632Z" fill="white"/>
<path d="M250.458 364.229L262.955 389.412H251.656L239.248 364.395L250.458 364.229Z" fill="white"/>
<path d="M341.034 364.228L344.064 370.344H355.385L352.344 364.228H341.034Z" fill="#B1FFE1"/>
<path d="M315.563 364.228L318.604 370.344H329.902L326.872 364.228H315.563Z" fill="#B1FFE1"/>
<path d="M290.101 364.228L293.131 370.344H304.43L301.4 364.228H290.101Z" fill="#B1FFE1"/>
<path d="M264.628 364.228L267.658 370.344H278.957L275.927 364.228H264.628Z" fill="#B1FFE1"/>
<path d="M239.246 364.395L242.199 370.344H253.486L250.456 364.228L239.246 364.395Z" fill="#B1FFE1"/>
<path d="M342.326 362.544C338.085 361.854 335.206 357.857 335.896 353.615C336.586 349.374 340.583 346.495 344.825 347.185C349.066 347.875 351.945 351.873 351.255 356.114C350.565 360.355 346.567 363.234 342.326 362.544Z" fill="#84E4BF"/>
<path d="M340.025 354.828C340.025 352.874 341.601 351.298 343.555 351.298C345.508 351.298 347.084 352.874 347.084 354.828C347.084 356.781 345.508 358.357 343.555 358.357C341.601 358.357 340.025 356.781 340.025 354.828Z" fill="white"/>
<path d="M257.172 362.545C252.93 361.855 250.052 357.857 250.742 353.616C251.432 349.375 255.429 346.496 259.67 347.186C263.911 347.876 266.79 351.873 266.1 356.114C265.41 360.356 261.413 363.235 257.172 362.545Z" fill="#84E4BF"/>
<path d="M254.877 354.828C254.877 352.874 256.453 351.298 258.406 351.298C260.36 351.298 261.936 352.874 261.936 354.828C261.936 356.781 260.36 358.357 258.406 358.357C256.453 358.357 254.877 356.781 254.877 354.828Z" fill="white"/>
<path d="M192.324 421.177H231.77L225.732 406.549L223.301 400.633L222.635 399.013L221.547 396.382L221.325 395.85L218.895 389.945L218.451 388.868L214.144 378.424C213.368 376.538 210.704 376.538 209.927 378.424L205.621 388.868L205.177 389.945L202.746 395.85L202.524 396.382L201.436 399.013L200.77 400.633L198.34 406.538L192.302 421.177H192.324Z" fill="#84E4BF"/>
<g style="mix-blend-mode:multiply" opacity="0.29">
<path d="M229.183 414.906L231.77 421.177H192.313L194.899 414.906H229.183Z" fill="#53C599"/>
</g>
<path d="M189.738 417.426H234.922V423.819H189.738V417.426Z" fill="#84E4BF"/>
<path opacity="0.56" d="M189.739 417.426H199.506V423.819H189.739V417.426Z" fill="#0C4630"/>
<g style="mix-blend-mode:multiply" opacity="0.29">
<path d="M193.87 417.426H199.453L203.937 406.549L206.367 400.633L207.033 399.013L208.121 396.382L208.343 395.85L210.774 389.945L211.218 388.868L214.836 380.078L214.159 378.424C213.382 376.538 210.718 376.538 209.941 378.424L205.635 388.868L205.191 389.945L202.76 395.85L202.538 396.382L201.451 399.013L200.785 400.633L198.354 406.538L193.87 417.415V417.426Z" fill="#53C599"/>
</g>
<path d="M202.76 395.851H221.328L218.909 389.957H205.19L202.76 395.851Z" fill="white"/>
<path d="M198.353 406.549H225.734L223.315 400.645H200.784L198.353 406.549Z" fill="white"/>
<path d="M202.758 395.851H208.341L210.771 389.957H205.189L202.758 395.851Z" fill="#B1FFE1"/>
<path d="M198.354 406.549H203.937L206.367 400.645H200.784L198.354 406.549Z" fill="#B1FFE1"/>
<path d="M274.609 177.446C265.297 177.446 264.787 163.439 274.088 162.984C274.343 162.973 274.598 162.962 274.854 162.962C276.518 162.962 278.106 163.229 279.615 163.706C280.858 156.125 287.44 150.343 295.375 150.343C303.311 150.343 310.181 156.392 311.202 164.216C313.123 163.295 315.287 162.774 317.562 162.774C318.838 162.774 320.07 162.94 321.247 163.24C329.382 165.337 327.673 177.446 319.271 177.446H274.62H274.609Z" fill="#84E4BF"/>
<path d="M430.646 222.274C427.694 222.274 425.141 220.131 424.741 217.212C424.675 216.691 424.63 216.158 424.63 215.614C424.63 209.11 429.902 203.838 436.406 203.838C436.673 203.838 436.939 203.849 437.194 203.872C437.727 197.456 443.099 192.417 449.658 192.417C456.562 192.417 462.167 198.022 462.167 204.926C462.167 205.237 462.156 205.536 462.134 205.836C464.098 204.737 466.373 204.16 468.804 204.271C475.086 204.56 480.247 209.587 480.691 215.858C480.691 215.903 480.691 215.958 480.691 216.003C480.891 219.41 478.138 222.274 474.72 222.274H430.646Z" fill="#84E4BF"/>
</svg>
