<svg width="96" height="32" viewBox="0 0 96 32" fill="none" xmlns="http://www.w3.org/2000/svg">
<g filter="url(#filter0_d_112_2654)">
<path d="M4.73844 23.5C4.56244 23.5 4.41844 23.444 4.30644 23.332C4.19444 23.22 4.13844 23.076 4.13844 22.9V7.3C4.13844 7.124 4.19444 6.98 4.30644 6.868C4.41844 6.756 4.56244 6.7 4.73844 6.7H15.7544C15.9304 6.7 16.0744 6.756 16.1864 6.868C16.3144 6.98 16.3784 7.124 16.3784 7.3V9.724C16.3784 9.9 16.3144 10.044 16.1864 10.156C16.0744 10.268 15.9304 10.324 15.7544 10.324H8.36244V13.852H15.2744C15.4504 13.852 15.5944 13.916 15.7064 14.044C15.8344 14.156 15.8984 14.3 15.8984 14.476V16.876C15.8984 17.036 15.8344 17.18 15.7064 17.308C15.5944 17.42 15.4504 17.476 15.2744 17.476H8.36244V22.9C8.36244 23.076 8.30644 23.22 8.19444 23.332C8.08244 23.444 7.93844 23.5 7.76244 23.5H4.73844ZM25.6978 23.74C24.2258 23.74 22.9458 23.5 21.8578 23.02C20.7698 22.54 19.9218 21.82 19.3138 20.86C18.7058 19.884 18.3698 18.668 18.3058 17.212C18.2898 16.524 18.2818 15.836 18.2818 15.148C18.2818 14.46 18.2898 13.764 18.3058 13.06C18.3698 11.62 18.7058 10.412 19.3138 9.436C19.9378 8.444 20.7938 7.7 21.8818 7.204C22.9698 6.708 24.2418 6.46 25.6978 6.46C27.1378 6.46 28.4018 6.708 29.4898 7.204C30.5938 7.7 31.4578 8.444 32.0818 9.436C32.7058 10.412 33.0418 11.62 33.0898 13.06C33.1218 13.764 33.1378 14.46 33.1378 15.148C33.1378 15.836 33.1218 16.524 33.0898 17.212C33.0258 18.668 32.6898 19.884 32.0818 20.86C31.4738 21.82 30.6258 22.54 29.5378 23.02C28.4498 23.5 27.1698 23.74 25.6978 23.74ZM25.6978 20.284C26.5458 20.284 27.2338 20.028 27.7618 19.516C28.3058 19.004 28.5938 18.188 28.6258 17.068C28.6578 16.364 28.6738 15.7 28.6738 15.076C28.6738 14.452 28.6578 13.804 28.6258 13.132C28.5938 12.38 28.4498 11.772 28.1938 11.308C27.9538 10.828 27.6178 10.476 27.1858 10.252C26.7538 10.028 26.2578 9.916 25.6978 9.916C25.1538 9.916 24.6658 10.028 24.2338 10.252C23.8018 10.476 23.4578 10.828 23.2018 11.308C22.9458 11.772 22.8018 12.38 22.7698 13.132C22.7538 13.804 22.7458 14.452 22.7458 15.076C22.7458 15.7 22.7538 16.364 22.7698 17.068C22.8178 18.188 23.1058 19.004 23.6338 19.516C24.1618 20.028 24.8498 20.284 25.6978 20.284ZM36.5197 23.5C36.3437 23.5 36.1997 23.444 36.0877 23.332C35.9757 23.22 35.9197 23.076 35.9197 22.9V7.3C35.9197 7.124 35.9757 6.98 36.0877 6.868C36.1997 6.756 36.3437 6.7 36.5197 6.7H43.0477C45.1117 6.7 46.7357 7.18 47.9197 8.14C49.1197 9.084 49.7197 10.428 49.7197 12.172C49.7197 13.308 49.4397 14.268 48.8797 15.052C48.3357 15.836 47.6157 16.428 46.7197 16.828L50.0317 22.732C50.0797 22.828 50.1037 22.916 50.1037 22.996C50.1037 23.124 50.0477 23.244 49.9357 23.356C49.8397 23.452 49.7197 23.5 49.5757 23.5H46.4077C46.1037 23.5 45.8797 23.428 45.7357 23.284C45.5917 23.124 45.4877 22.98 45.4237 22.852L42.6877 17.572H40.2157V22.9C40.2157 23.076 40.1597 23.22 40.0477 23.332C39.9357 23.444 39.7917 23.5 39.6157 23.5H36.5197ZM40.2157 14.188H42.9997C43.7517 14.188 44.3117 14.004 44.6797 13.636C45.0637 13.268 45.2557 12.764 45.2557 12.124C45.2557 11.5 45.0717 10.996 44.7037 10.612C44.3517 10.228 43.7837 10.036 42.9997 10.036H40.2157V14.188Z" fill="#84E4BE"/>
<path d="M53.1134 23.5C52.9374 23.5 52.7934 23.444 52.6814 23.332C52.5694 23.22 52.5134 23.076 52.5134 22.9V7.3C52.5134 7.124 52.5694 6.98 52.6814 6.868C52.7934 6.756 52.9374 6.7 53.1134 6.7H60.4334C61.8094 6.7 62.9374 6.892 63.8174 7.276C64.6974 7.66 65.3454 8.212 65.7614 8.932C66.1934 9.636 66.4094 10.476 66.4094 11.452C66.4094 12.028 66.2974 12.54 66.0734 12.988C65.8654 13.42 65.6014 13.78 65.2814 14.068C64.9774 14.356 64.6894 14.564 64.4174 14.692C65.0254 14.98 65.5614 15.452 66.0254 16.108C66.5054 16.764 66.7454 17.532 66.7454 18.412C66.7454 19.468 66.5054 20.38 66.0254 21.148C65.5614 21.9 64.8734 22.484 63.9614 22.9C63.0654 23.3 61.9614 23.5 60.6494 23.5H53.1134ZM56.8094 20.38H60.1694C60.8574 20.38 61.3774 20.18 61.7294 19.78C62.0814 19.38 62.2574 18.924 62.2574 18.412C62.2574 17.852 62.0734 17.38 61.7054 16.996C61.3534 16.612 60.8414 16.42 60.1694 16.42H56.8094V20.38ZM56.8094 13.372H59.9534C60.6094 13.372 61.0974 13.204 61.4174 12.868C61.7534 12.532 61.9214 12.1 61.9214 11.572C61.9214 11.06 61.7534 10.644 61.4174 10.324C61.0974 9.988 60.6094 9.82 59.9534 9.82H56.8094V13.372ZM82.4004 23.5C82.2244 23.5 82.0804 23.444 81.9684 23.332C81.8564 23.22 81.8004 23.076 81.8004 22.9V10.468H77.5284C77.3524 10.468 77.2084 10.412 77.0964 10.3C76.9844 10.172 76.9284 10.028 76.9284 9.868V7.3C76.9284 7.124 76.9844 6.98 77.0964 6.868C77.2084 6.756 77.3524 6.7 77.5284 6.7H90.4404C90.6164 6.7 90.7604 6.756 90.8724 6.868C90.9844 6.98 91.0404 7.124 91.0404 7.3V9.868C91.0404 10.028 90.9844 10.172 90.8724 10.3C90.7604 10.412 90.6164 10.468 90.4404 10.468H86.1684V22.9C86.1684 23.076 86.1124 23.22 86.0004 23.332C85.8884 23.444 85.7444 23.5 85.5684 23.5H82.4004Z" fill="white"/>
<path d="M70 23.5L70 14.5" stroke="#84E4BE" stroke-linecap="round"/>
<path d="M72 23.5L72 11.5" stroke="#84E4BE" stroke-linecap="round"/>
<path d="M74 23.5L74 7.5" stroke="#84E4BE" stroke-linecap="round"/>
</g>
<defs>
<filter id="filter0_d_112_2654" x="0.138428" y="6.45996" width="94.902" height="25.54" filterUnits="userSpaceOnUse" color-interpolation-filters="sRGB">
<feFlood flood-opacity="0" result="BackgroundImageFix"/>
<feColorMatrix in="SourceAlpha" type="matrix" values="0 0 0 0 0 0 0 0 0 0 0 0 0 0 0 0 0 0 127 0" result="hardAlpha"/>
<feOffset dy="4"/>
<feGaussianBlur stdDeviation="2"/>
<feComposite in2="hardAlpha" operator="out"/>
<feColorMatrix type="matrix" values="0 0 0 0 0 0 0 0 0 0 0 0 0 0 0 0 0 0 0.25 0"/>
<feBlend mode="normal" in2="BackgroundImageFix" result="effect1_dropShadow_112_2654"/>
<feBlend mode="normal" in="SourceGraphic" in2="effect1_dropShadow_112_2654" result="shape"/>
</filter>
</defs>
</svg>
